<svg width="944" height="768" viewBox="0 0 944 768" fill="none" xmlns="http://www.w3.org/2000/svg">
<circle cx="32" cy="32" r="32" fill="#F2F2F2"/>
<circle cx="208" cy="32" r="32" fill="#F2F2F2"/>
<circle cx="384" cy="32" r="32" fill="#F2F2F2"/>
<circle cx="560" cy="32" r="32" fill="#F2F2F2"/>
<circle cx="736" cy="32" r="32" fill="#F2F2F2"/>
<circle cx="912" cy="32" r="32" fill="#F2F2F2"/>
<circle cx="32" cy="208" r="32" fill="#F2F2F2"/>
<circle cx="208" cy="208" r="32" fill="#F2F2F2"/>
<circle cx="384" cy="208" r="32" fill="#F2F2F2"/>
<circle cx="560" cy="208" r="32" fill="#F2F2F2"/>
<circle cx="736" cy="208" r="32" fill="#F2F2F2"/>
<circle cx="912" cy="208" r="32" fill="#F2F2F2"/>
<circle cx="32" cy="384" r="32" fill="#F2F2F2"/>
<circle cx="208" cy="384" r="32" fill="#F2F2F2"/>
<circle cx="384" cy="384" r="32" fill="#F2F2F2"/>
<circle cx="560" cy="384" r="32" fill="#F2F2F2"/>
<circle cx="736" cy="384" r="32" fill="#F2F2F2"/>
<circle cx="912" cy="384" r="32" fill="#F2F2F2"/>
<circle cx="32" cy="560" r="32" fill="#F2F2F2"/>
<circle cx="208" cy="560" r="32" fill="#F2F2F2"/>
<circle cx="384" cy="560" r="32" fill="#F2F2F2"/>
<circle cx="560" cy="560" r="32" fill="#F2F2F2"/>
<circle cx="736" cy="560" r="32" fill="#F2F2F2"/>
<circle cx="912" cy="560" r="32" fill="#F2F2F2"/>
<circle cx="32" cy="736" r="32" fill="#F2F2F2"/>
<circle cx="208" cy="736" r="32" fill="#F2F2F2"/>
<circle cx="384" cy="736" r="32" fill="#F2F2F2"/>
<circle cx="560" cy="736" r="32" fill="#F2F2F2"/>
<circle cx="736" cy="736" r="32" fill="#F2F2F2"/>
<circle cx="912" cy="736" r="32" fill="#F2F2F2"/>
</svg>
