<svg width="1028" height="558" viewBox="0 0 1028 558" fill="none" xmlns="http://www.w3.org/2000/svg">
<path d="M878.66 7.20999V357.79C878.66 358.737 878.474 359.674 878.111 360.549C877.749 361.424 877.218 362.219 876.548 362.888C875.879 363.558 875.084 364.089 874.209 364.451C873.334 364.814 872.397 365 871.45 365H156.86C155.914 365 154.977 364.813 154.102 364.451C153.228 364.089 152.434 363.557 151.765 362.888C151.097 362.218 150.566 361.423 150.205 360.548C149.844 359.674 149.659 358.736 149.66 357.79V7.20999C149.659 6.26363 149.844 5.3263 150.205 4.4516C150.566 3.5769 151.097 2.78201 151.765 2.11237C152.434 1.44272 153.228 0.91147 154.102 0.549011C154.977 0.186552 155.914 -9.12767e-07 156.86 0H871.45C873.362 0 875.196 0.759618 876.548 2.11176C877.9 3.46389 878.66 5.29778 878.66 7.20999V7.20999Z" fill="#3F3D56"/>
<path d="M878.66 4.81V21H149.66V4.81C149.66 3.53431 150.167 2.31086 151.069 1.40881C151.971 0.506764 153.194 0 154.47 0H873.85C875.126 0 876.349 0.506764 877.251 1.40881C878.153 2.31086 878.66 3.53431 878.66 4.81Z" fill="#CBCEDA"/>
<path d="M165.66 15C168.421 15 170.66 12.7614 170.66 10C170.66 7.23858 168.421 5 165.66 5C162.899 5 160.66 7.23858 160.66 10C160.66 12.7614 162.899 15 165.66 15Z" fill="#6C63FF"/>
<path d="M179.66 15C182.421 15 184.66 12.7614 184.66 10C184.66 7.23858 182.421 5 179.66 5C176.899 5 174.66 7.23858 174.66 10C174.66 12.7614 176.899 15 179.66 15Z" fill="#6C63FF"/>
<path d="M193.66 15C196.421 15 198.66 12.7614 198.66 10C198.66 7.23858 196.421 5 193.66 5C190.899 5 188.66 7.23858 188.66 10C188.66 12.7614 190.899 15 193.66 15Z" fill="#6C63FF"/>
<path opacity="0.2" d="M761.48 255.97V316.15L266.28 316.42L265.83 196.12C271.06 211.53 283.97 214.3 306.7 187.12C362.25 120.78 437.76 103.32 496.21 101.49C536.21 100.23 576.12 108.49 614.21 124.9C630.03 131.73 692.55 139.08 733.81 142.36C741.298 142.95 748.29 146.338 753.395 151.848C758.499 157.359 761.343 164.588 761.36 172.1L761.48 255.97Z" fill="#6C63FF"/>
<path opacity="0.2" d="M761.48 197.12V316.72H265.83V290.72C280 287.15 333 273.42 358.41 235.5C388.81 190.1 430.13 178.16 462.1 176.91C484.01 176.04 505.82 181.67 526.64 192.91C550.06 205.55 595.21 220.8 629.51 176.53C667.45 127.58 725.73 167.92 740.51 182.75C745.79 187.99 761.48 197.12 761.48 197.12Z" fill="#6C63FF"/>
<path d="M265.83 70.28V314.84H761.48" stroke="#6C63FF" stroke-width="2" stroke-miterlimit="10"/>
<path d="M328.28 314.84V165.75" stroke="#6C63FF" stroke-miterlimit="10"/>
<path d="M388.44 314.84V125.87" stroke="#6C63FF" stroke-miterlimit="10"/>
<path d="M448.6 314.84V106.9" stroke="#6C63FF" stroke-miterlimit="10"/>
<path d="M508.76 314.84V101.02" stroke="#6C63FF" stroke-miterlimit="10"/>
<path d="M568.92 314.84V107.56" stroke="#6C63FF" stroke-miterlimit="10"/>
<path d="M629.08 314.84V131.75" stroke="#6C63FF" stroke-miterlimit="10"/>
<path d="M689.24 314.84V144.17" stroke="#6C63FF" stroke-miterlimit="10"/>
<path d="M327.95 174.91C334.091 174.91 339.07 169.931 339.07 163.79C339.07 157.649 334.091 152.67 327.95 152.67C321.809 152.67 316.83 157.649 316.83 163.79C316.83 169.931 321.809 174.91 327.95 174.91Z" fill="#6C63FF"/>
<path d="M388.11 136.99C394.251 136.99 399.23 132.011 399.23 125.87C399.23 119.729 394.251 114.75 388.11 114.75C381.969 114.75 376.99 119.729 376.99 125.87C376.99 132.011 381.969 136.99 388.11 136.99Z" fill="#6C63FF"/>
<path d="M448.27 118.68C454.411 118.68 459.39 113.701 459.39 107.56C459.39 101.419 454.411 96.44 448.27 96.44C442.129 96.44 437.15 101.419 437.15 107.56C437.15 113.701 442.129 118.68 448.27 118.68Z" fill="#6C63FF"/>
<path d="M508.42 112.14C514.561 112.14 519.54 107.161 519.54 101.02C519.54 94.8786 514.561 89.9 508.42 89.9C502.279 89.9 497.3 94.8786 497.3 101.02C497.3 107.161 502.279 112.14 508.42 112.14Z" fill="#6C63FF"/>
<path d="M568.58 118.68C574.721 118.68 579.7 113.701 579.7 107.56C579.7 101.419 574.721 96.44 568.58 96.44C562.439 96.44 557.46 101.419 557.46 107.56C557.46 113.701 562.439 118.68 568.58 118.68Z" fill="#6C63FF"/>
<path d="M628.74 143.52C634.881 143.52 639.86 138.541 639.86 132.4C639.86 126.259 634.881 121.28 628.74 121.28C622.599 121.28 617.62 126.259 617.62 132.4C617.62 138.541 622.599 143.52 628.74 143.52Z" fill="#6C63FF"/>
<path d="M688.9 156.6C695.041 156.6 700.02 151.621 700.02 145.48C700.02 139.339 695.041 134.36 688.9 134.36C682.759 134.36 677.78 139.339 677.78 145.48C677.78 151.621 682.759 156.6 688.9 156.6Z" fill="#6C63FF"/>
<path d="M514 558C797.874 558 1028 548.598 1028 537C1028 525.402 797.874 516 514 516C230.126 516 0 525.402 0 537C0 548.598 230.126 558 514 558Z" fill="#3F3D56"/>
<path d="M57.54 171.72C57.4999 172.586 57.2194 173.424 56.73 174.14C60.73 174.02 64.28 171.39 67.97 170.14C67.31 174.02 67.97 178.62 68.47 181.92C68.9523 185.121 69.7495 188.266 70.85 191.31C73.38 202.18 77.99 212.87 82.12 223.31C83.9004 227.448 85.2411 231.762 86.12 236.18C88.93 253.03 79.21 269.33 77.37 286.3C77.2299 287.235 77.2299 288.185 77.37 289.12C77.2046 289.295 77.0572 289.486 76.93 289.69C70.14 300.11 71.02 317.55 72.24 329.89C73.46 342.23 77.37 354.13 81.06 365.98C82.1593 369.246 83.0183 372.588 83.63 375.98C84.2163 380.624 84.3101 385.316 83.91 389.98C82.69 411.69 79.63 433.59 83.24 454.98C85.87 470.57 91.61 484.75 92.24 500.54C92.716 499.375 93.4716 498.344 94.44 497.54L95.52 539.01C95.4703 539.397 95.5153 539.79 95.6512 540.156C95.787 540.522 96.0097 540.849 96.3 541.11C97.07 541.6 98.07 541.11 98.98 540.98C101.62 540.66 103.31 543.53 105.06 545.52C107.69 548.52 111.74 549.94 115.71 550.25C119.707 550.4 123.706 550.037 127.61 549.17C129.44 548.84 131.38 548.46 132.75 547.17C133.451 546.456 133.974 545.587 134.276 544.633C134.578 543.679 134.652 542.667 134.49 541.68C133.71 535.57 127.13 532.09 123.82 526.88C119.91 520.72 120.82 512.47 117 506.24C115.69 504.11 113.88 502.31 112.71 500.1C112.12 498.738 111.655 497.326 111.32 495.88C112.507 496.238 113.633 496.774 114.66 497.47C114.3 494.23 113.93 490.98 113.57 487.73L113.41 486.33C112.92 481.94 112.41 477.56 112.05 473.16C110.82 458.68 114.93 444.49 112.05 430.24C111.45 427.24 112.41 424.11 113.3 421.16C118.356 404.355 121.44 387.018 122.49 369.5C122.85 363.32 122.84 357.36 124.82 351.5C127.14 360.95 134.31 368.4 138.82 377.07C141.6 382.47 143.33 388.37 146.36 393.63C147.82 396.19 149.6 398.63 150.53 401.41C151.97 405.76 151.21 410.48 150.53 415.02C147.28 438.52 147.66 462.44 148.7 486.14C147.712 495.209 145.627 504.124 142.49 512.69C141.25 516.07 139.9 520.01 141.82 523.06C142.63 524.178 143.649 525.129 144.82 525.86C147.662 527.882 150.65 529.69 153.76 531.27C154.684 531.877 155.794 532.132 156.89 531.99C157.57 531.754 158.21 531.417 158.79 530.99C161.22 529.53 164.36 529.76 167.04 530.7C169.72 531.64 172.14 533.21 174.74 534.34C180.191 536.683 186.274 537.113 192 535.56C194.42 534.89 197 533.61 197.75 531.24C198.5 528.87 197.12 526.37 195.21 524.81C193.3 523.25 190.94 522.41 188.75 521.27C183.95 518.767 180.032 514.855 177.52 510.06C176.011 506.897 174.825 503.591 173.98 500.19C172.82 496.11 171.663 492.03 170.51 487.95C171.169 488.383 171.797 488.861 172.39 489.38C174.02 469.18 175.67 448.92 180 429.12C182.07 419.65 184.77 410.06 183.72 400.43C183.17 395.37 181.59 390.48 180.09 385.61C175.423 370.417 171.337 355.063 167.83 339.55C169.137 338.088 170.155 336.391 170.83 334.55C171.955 331.125 172.572 327.554 172.66 323.95C174.337 299.643 174.271 275.247 172.46 250.95C172 244.79 171.28 238.32 168.86 232.72H170.28C168.59 232.72 165.83 215.94 165.5 214.07C164.37 207.59 163.58 201.07 162.41 194.6C161.84 191.45 161.2 188.3 160.41 185.2C159.87 183.14 157.71 170.35 155.99 168.92C155.805 168.766 155.595 168.644 155.37 168.56C154.507 165.686 152.617 163.23 150.06 161.66C147.29 160.1 143.99 160.05 140.76 160.3C139.847 158.967 138.933 157.65 138.02 156.35C136.342 154.196 135.059 151.762 134.23 149.16C133.971 148.071 133.817 146.959 133.77 145.84C133.77 145.09 133.72 144.34 133.69 143.59C133.69 143.21 133.69 142.84 133.69 142.46C133.655 141.713 133.575 140.968 133.45 140.23V140.23C133.35 139.62 133.2 139.03 133.04 138.43C132.97 138.18 132.88 137.92 132.8 137.67C132.34 136.16 131.8 134.67 131.4 133.15C130.17 128.24 130.79 123.09 130.98 118.03C131.17 112.97 130.84 107.61 127.98 103.39C125.89 100.29 122.54 97.94 121.42 94.39C120.89 92.7 120.92 90.84 120.14 89.24C119.127 87.4613 117.509 86.1057 115.58 85.42C113.32 84.42 108.78 83.1 106.35 84.27C105.895 84.4962 105.492 84.8166 105.17 85.21C102.6 85.34 100.01 85.69 97.75 84.56C96.01 83.69 94.75 82.04 93.06 81.09C89.06 78.85 83.96 81.09 80.4 84.01C74.7409 88.6458 70.6055 94.8752 68.53 101.89C66.95 107.3 66.31 113.62 61.78 117.03C59.9 118.44 57.48 119.22 56.11 121.11C55.1779 122.648 54.661 124.402 54.61 126.2C54.14 130.3 53.75 134.52 54.84 138.5C55.66 141.5 57.27 144.18 58.27 147.1C59.6031 151.231 59.7209 155.659 58.6093 159.855C57.4977 164.052 55.2035 167.84 52 170.77C53.6526 171.796 55.6401 172.137 57.54 171.72ZM153.7 293.05C155.061 292.313 156.248 291.291 157.178 290.053C158.108 288.816 158.76 287.393 159.09 285.88C159.2 286.27 159.29 286.66 159.39 287.05C160.673 292.272 160.412 297.754 158.64 302.83C157.313 299.418 155.658 296.143 153.7 293.05V293.05ZM155.7 270.91C154.034 268.522 152.626 265.965 151.5 263.28C149.96 258.96 150.31 254.28 150.68 249.66C150.878 246.173 151.359 242.708 152.12 239.3C152.562 249.91 153.768 260.474 155.73 270.91H155.7Z" fill="url(#paint0_linear)"/>
<path d="M117 88.06C118.899 88.746 120.489 90.0909 121.48 91.85C122.24 93.44 122.22 95.29 122.74 96.97C123.84 100.51 127.14 102.85 129.18 105.97C131.96 110.16 132.29 115.5 132.1 120.52C131.91 125.54 131.31 130.67 132.52 135.52C133.11 137.89 134.13 140.16 134.52 142.57C135.02 145.51 134.6 148.57 135.33 151.46C136.142 154.042 137.405 156.459 139.06 158.6L145.57 168.12C142.663 167.421 139.801 166.546 137 165.5C137.865 168.22 139.472 170.644 141.64 172.5L136.93 166.8C135.975 165.489 134.789 164.364 133.43 163.48C131.7 162.48 129.66 162.34 127.72 161.95C123.98 161.19 120.25 159.28 118.42 155.95C115.99 151.47 117.54 145.85 116.19 140.95C115.19 137.37 112.73 134.42 111.03 131.11C107.19 123.64 107.42 114.82 106.22 106.49C105.71 102.96 104.92 99.49 104.9 95.87C104.9 93.24 105.16 88.22 107.9 86.87C110.31 85.75 114.77 87.11 117 88.06Z" fill="#3F3D56"/>
<path d="M169.42 482.71L174.42 500.48C175.247 503.859 176.413 507.145 177.9 510.29C180.339 515.045 184.179 518.937 188.9 521.44C191.05 522.57 193.38 523.44 195.25 524.96C197.12 526.48 198.46 529.03 197.74 531.35C197.02 533.67 194.47 534.98 192.09 535.65C186.449 537.192 180.45 536.758 175.09 534.42C172.54 533.29 170.16 531.73 167.53 530.8C164.9 529.87 161.8 529.63 159.42 531.09C158.85 531.515 158.22 531.852 157.55 532.09C156.471 532.237 155.376 531.985 154.47 531.38C151.409 529.809 148.471 528.011 145.68 526C144.542 525.271 143.557 524.326 142.78 523.22C140.88 520.22 142.22 516.22 143.43 512.91C146.645 504.042 148.738 494.807 149.66 485.42C149.642 485.005 149.715 484.591 149.872 484.206C150.029 483.821 150.267 483.474 150.57 483.19C151.013 482.957 151.51 482.847 152.01 482.87L173.37 481.87" fill="#575A89"/>
<path d="M114.12 500.5C115.27 502.69 117.06 504.5 118.34 506.61C122.09 512.8 121.2 521 125.05 527.12C128.3 532.3 134.77 535.77 135.54 541.84C135.698 542.819 135.626 543.821 135.329 544.767C135.032 545.713 134.519 546.577 133.83 547.29C132.48 548.54 130.57 548.91 128.77 549.23C124.937 550.096 121.007 550.459 117.08 550.31C113.17 550 109.19 548.56 106.61 545.6C104.88 543.6 103.23 540.77 100.61 541.1C99.71 541.21 98.73 541.71 97.97 541.22C97.687 540.959 97.4703 540.634 97.3382 540.272C97.206 539.91 97.1621 539.522 97.21 539.14L96.03 493.67C99.81 493.26 106.36 491.76 110.03 493.06C113.19 494.17 112.68 497.73 114.12 500.5Z" fill="#575A89"/>
<path d="M151.44 290.31C160.66 301.78 163.39 316.97 166.35 331.39C170.163 349.99 174.85 368.383 180.41 386.57C181.89 391.41 183.41 396.27 183.98 401.3C184.98 410.88 182.36 420.41 180.32 429.82C176.07 449.51 174.45 469.65 172.85 489.73C169.651 487.004 165.645 485.407 161.448 485.185C157.252 484.962 153.099 486.127 149.63 488.5C148.55 464.29 148.06 439.83 151.34 415.81C151.96 411.3 152.71 406.61 151.34 402.29C150.42 399.51 148.68 397.1 147.23 394.56C144.23 389.32 142.55 383.46 139.82 378.09C135.43 369.47 128.38 362.09 126.1 352.67C124.15 358.51 124.16 364.43 123.81 370.57C122.794 387.999 119.774 405.252 114.81 421.99C113.93 424.93 112.99 427.99 113.58 430.99C116.38 445.17 112.34 459.27 113.58 473.67C113.94 478.04 114.43 482.4 114.91 486.76L115.07 488.16L116.15 497.84C112.15 495.11 107.92 495.5 103.09 495.75C101.46 495.751 99.8426 496.035 98.31 496.59C97.3388 496.982 96.4565 497.565 95.716 498.306C94.9754 499.047 94.3918 499.929 94 500.9C93.42 485.2 87.77 471.1 85.19 455.61C81.64 434.29 84.64 412.51 85.85 390.93C86.2424 386.283 86.1486 381.608 85.57 376.98C84.9674 373.59 84.1219 370.248 83.04 366.98C79.42 355.2 75.57 343.37 74.37 331.1C73.17 318.83 72.31 301.5 78.98 291.1C81.04 287.9 86.11 289.34 89.31 287.26C91.8314 285.68 94.6048 284.543 97.51 283.9C115 279.84 133.56 288.77 151.44 290.31Z" fill="#3C354C"/>
<path d="M119.87 147.97C120.26 152.34 121.18 157.49 125.16 159.33C127.42 160.33 130.04 159.98 132.48 160.38C137.1 161.13 140.9 164.68 143.04 168.84C145.18 173 145.92 177.73 146.42 182.38C147.04 188.21 147.24 194.53 144.04 199.44C141.46 203.44 137.04 205.83 132.4 207.06C127.791 208.268 122.973 208.446 118.288 207.582C113.602 206.718 109.165 204.833 105.29 202.06C101.587 199.171 98.2311 195.862 95.29 192.2C88.65 184.47 81.96 176 80.6 165.9C80.44 164.75 80.45 163.36 81.39 162.68C82.0397 162.314 82.7901 162.166 83.53 162.26L89.9 162.37C91.51 162.37 93.33 162.37 94.43 161.16C95.53 159.95 95.43 158.41 95.43 156.93L95 138.44C94.9057 137.785 95.059 137.118 95.43 136.57C95.8322 136.202 96.3464 135.98 96.89 135.94C100.4 135.35 104.07 135.94 107.5 134.99C110.77 134.09 115.9 130.34 118.3 134.19C120.3 137.5 119.54 144.24 119.87 147.97Z" fill="#FFC1C7"/>
<path opacity="0.1" d="M119.87 147.97C120.26 152.34 121.18 157.49 125.16 159.33C127.42 160.33 130.04 159.98 132.48 160.38C137.1 161.13 140.9 164.68 143.04 168.84C145.18 173 145.92 177.73 146.42 182.38C147.04 188.21 147.24 194.53 144.04 199.44C141.46 203.44 137.04 205.83 132.4 207.06C127.791 208.268 122.973 208.446 118.288 207.582C113.602 206.718 109.165 204.833 105.29 202.06C101.587 199.171 98.2311 195.862 95.29 192.2C88.65 184.47 81.96 176 80.6 165.9C80.44 164.75 80.45 163.36 81.39 162.68C82.0397 162.314 82.7901 162.166 83.53 162.26L89.9 162.37C91.51 162.37 93.33 162.37 94.43 161.16C95.53 159.95 95.43 158.41 95.43 156.93L95 138.44C94.9057 137.785 95.059 137.118 95.43 136.57C95.8322 136.202 96.3464 135.98 96.89 135.94C100.4 135.35 104.07 135.94 107.5 134.99C110.77 134.09 115.9 130.34 118.3 134.19C120.3 137.5 119.54 144.24 119.87 147.97Z" fill="black"/>
<path d="M103.84 146.76C117.277 146.76 128.17 135.867 128.17 122.43C128.17 108.993 117.277 98.1 103.84 98.1C90.4029 98.1 79.51 108.993 79.51 122.43C79.51 135.867 90.4029 146.76 103.84 146.76Z" fill="#FFC1C7"/>
<path d="M130 190.11C133.93 190.18 138.37 189.11 140.27 185.63C141.57 183.27 141.36 180.4 141.11 177.72L139.7 162.72C143.52 162.32 147.63 161.98 150.96 163.87C155.39 166.38 156.96 171.94 157.48 177C158.41 186.5 156.9 196.09 157.42 205.62C157.86 213.62 159.71 221.88 157.35 229.55C156.35 232.75 154.69 235.7 153.61 238.87C152.26 242.87 151.91 247.17 151.61 251.4C151.24 255.94 150.89 260.64 152.41 264.94C153.68 268.54 156.16 271.57 157.93 274.94C160.83 280.52 161.45 288.04 157.09 292.57C153.09 296.71 146.51 296.88 140.92 295.57C135.33 294.26 129.92 291.76 124.22 291.52C114.1 291.09 105.08 297.66 95.22 299.79C93.8982 300.144 92.5131 300.192 91.17 299.93C89.9817 299.545 88.876 298.942 87.91 298.15L82.49 294.25C81.4068 293.602 80.5054 292.69 79.87 291.6C79.416 290.387 79.2986 289.074 79.53 287.8C81.35 270.92 90.9 254.72 88.14 237.97C87.2819 233.579 85.9681 229.289 84.22 225.17C77.35 207.59 69.11 189.33 71.78 170.64C72.36 166.5 73.58 162.27 76.43 159.21C79.28 156.15 84.1 154.63 87.79 156.59C91.48 158.55 92.79 162.91 94.42 166.7C97.5612 174.068 102.548 180.501 108.9 185.38C111.58 187.44 114.83 190.07 118.34 190.16C122 190.29 126 190.03 130 190.11Z" fill="#6057CE"/>
<path d="M165.24 227.91C171.14 234.46 172.3 243.91 172.95 252.69C174.738 276.848 174.802 301.103 173.14 325.27C173.055 328.855 172.453 332.408 171.35 335.82C170.09 339.17 167.73 342.27 164.41 343.61C162.28 344.47 159.31 344.24 158.35 342.15C157.47 340.24 158.78 338.15 159.77 336.25C162.044 331.981 162.805 327.067 161.93 322.31C160.72 323.19 160.29 324.78 159.93 326.24L158 334.36C155.39 333.98 154.41 330.79 154 328.19C153.24 323.47 152.51 318.44 154.4 314.05C155.4 311.71 157.1 309.72 158.11 307.38C160.66 301.5 161.66 294.78 160.02 288.58C154.492 267.648 152.079 246.016 152.86 224.38C156.647 226.525 160.891 227.735 165.24 227.91V227.91Z" fill="#FFC1C7"/>
<path d="M170.81 234.5C163.548 234.573 156.322 235.527 149.29 237.34C148.36 232.76 148.81 228.02 149.29 223.34L152.39 191.34C152.62 188.97 152.18 167.2 156.77 171.05C158.46 172.47 160.59 185.19 161.12 187.24C161.92 190.32 162.55 193.44 163.12 196.58C164.27 203.01 165.05 209.5 166.12 215.94C166.43 217.85 169.15 234.5 170.81 234.5Z" fill="#6057CE"/>
<path d="M113.12 91.5C113.15 90.7386 112.977 89.983 112.62 89.31C112.303 88.9136 111.908 88.5872 111.459 88.3514C111.009 88.1156 110.516 87.9755 110.01 87.94C106.49 87.39 102.64 88.81 99.47 87.2C97.75 86.33 96.53 84.7 94.86 83.75C90.86 81.52 85.86 83.75 82.41 86.66C76.8377 91.2834 72.7768 97.4689 70.75 104.42C69.19 109.8 68.56 116.09 64.11 119.48C62.26 120.88 59.88 121.66 58.53 123.54C57.6215 125.054 57.1155 126.775 57.06 128.54C56.6 132.62 56.21 136.82 57.28 140.78C58.09 143.78 59.67 146.42 60.66 149.32C61.9852 153.436 62.1067 157.845 61.01 162.028C59.9134 166.211 57.6443 169.994 54.47 172.93C56.093 173.946 58.0503 174.284 59.92 173.87C59.878 174.73 59.6051 175.562 59.13 176.28C64.82 176.1 69.77 170.55 75.34 171.76C79.6 172.68 81.97 177.07 85.14 180.06C89.23 183.9 95.58 185.51 100.71 183.23C105.84 180.95 108.96 174.47 106.78 169.29C104.3 163.4 96.65 161.07 94 155.29C91.95 150.79 93.47 145.52 93 140.59C92.63 136.36 90.8 132.41 89.66 128.31C88.52 124.21 88.15 119.53 90.47 115.97C92.93 112.18 97.64 110.71 101.93 109.31C111.62 106.16 113.48 101.28 113.12 91.5Z" fill="#3F3D56"/>
<path d="M107.14 178.97C107.83 175.57 108.52 171.97 107.29 168.71C105.02 162.71 97.57 160.78 92.42 156.89C89.4365 154.622 87.144 151.568 85.8 148.07C84.87 145.61 84.74 142.23 87.04 140.97C87.935 140.55 88.9251 140.374 89.91 140.46C97.91 140.65 105.3 145.01 111.45 150.18C115.03 153.18 118.45 156.62 120.21 160.94C121.327 164.053 122 167.309 122.21 170.61L123.5 181.5C124.346 187.751 124.846 194.044 125 200.35C125.004 203.957 124.777 207.562 124.32 211.14C124 213.68 123.52 216.31 122.03 218.39C119.26 222.27 113.91 223.14 109.14 223.27C107.336 223.373 105.527 223.259 103.75 222.93C95.82 221.21 89.8 210.1 95.81 203.24C98.36 200.33 102.18 200.24 103.64 196.24C105.52 190.93 106 184.5 107.14 178.97Z" fill="#FFC1C7"/>
<path d="M100.69 180.88L107 191.11C107.375 191.637 107.637 192.236 107.77 192.87C107.94 194.2 106.95 195.38 106.16 196.47C100.76 203.83 102.16 213.97 103.76 222.95C95.1473 220.229 87.477 215.134 81.6307 208.249C75.7843 201.364 71.9991 192.97 70.71 184.03C69.92 178.68 68.65 169.87 73.4 166.39C84.79 157.99 95.33 172.11 100.69 180.88Z" fill="#6057CE"/>
<path d="M132.48 160.38C130.04 159.98 127.42 160.38 125.16 159.33C121.16 157.49 120.26 152.33 119.87 147.97C119.87 147.56 119.82 147.12 119.8 146.65C121.227 145.188 122.776 143.85 124.43 142.65C125.922 141.776 127.509 141.075 129.16 140.56L133.58 139.01C134.002 140.18 134.336 141.38 134.58 142.6C135.08 145.54 134.66 148.6 135.39 151.49C136.202 154.072 137.465 156.489 139.12 158.63L145.63 168.15C144.45 167.87 143.28 167.56 142.12 167.22C139.85 163.77 136.48 161.03 132.48 160.38Z" fill="#3F3D56"/>
<path d="M1015 202.5C1013.84 196.87 1011.67 191.5 1010.36 185.92C1009.82 183.006 1009.1 180.13 1008.19 177.31C1007.73 176.084 1007.15 174.905 1006.46 173.79L1007.08 173.21C1005.02 169.73 1004.94 165.37 1003.97 161.41C1003.13 158 1001.46 154.88 1000.45 151.52C999.05 146.86 998.86 141.6 995.97 137.75C994.83 136.23 993.34 135.04 992.07 133.63C990.61 132.02 989.46 130.13 987.98 128.55C983.68 123.97 977.2 122.55 971.07 121.89C964.94 121.23 958.6 121.24 952.95 118.69C950.58 117.62 948.08 116.09 945.6 116.27C944.206 114.927 942.926 113.472 941.77 111.92C939.884 109.635 938.173 107.211 936.65 104.67C937.842 102.653 938.763 100.488 939.39 98.23L939.8 97.94C941.41 96.72 942.8 95.13 944.38 93.94C945.77 92.94 947.56 91.89 947.71 90.11C947.86 88.33 946.25 86.97 945.25 85.5C941.64 80.23 945.63 71.98 941.93 66.77C940.08 64.16 936.85 63.17 933.93 61.9C929.93 60.14 926.36 57.61 922.39 55.9C918.42 54.19 913.83 53.26 909.83 54.9C902.35 58 899.66 68.65 892.06 71.43C891.236 71.5969 890.492 72.0374 889.95 72.68C889.02 74.2 887.79 83.15 888.01 85C888.3 87.45 888.89 88.66 890.58 89.52C890.58 90.04 890.58 90.57 890.58 91.1C890.58 103.83 899.4 114.4 911.03 116.58C912.145 117.755 913.094 119.077 913.85 120.51C914.439 122.029 914.777 123.633 914.85 125.26C914.432 125.06 913.973 124.964 913.51 124.98C912.77 125.085 912.077 125.403 911.514 125.895C910.951 126.387 910.544 127.031 910.34 127.75C909.925 129.219 909.76 130.747 909.85 132.27C909.913 132.74 909.867 133.219 909.714 133.668C909.562 134.118 909.307 134.526 908.97 134.86C908.603 135.081 908.188 135.212 907.76 135.24C906.216 135.529 904.651 135.69 903.08 135.72C900.48 135.72 897.69 135.07 895.4 136.34C893.11 137.61 892.07 140.34 890.97 142.81C889.376 146.344 887.278 149.629 884.74 152.56C881.94 155.8 878.46 158.87 877.67 163.16C877.66 163.26 877.66 163.36 877.67 163.46C875.48 164.46 873.24 166.86 871.67 168.07C868.658 170.401 865.765 172.881 863 175.5C860.19 178.21 856.4 181.57 854.66 185.19C853.773 186.738 852.591 188.097 851.18 189.19C848.33 191.04 844.65 190.06 841.44 189.02C832.54 186.15 823.59 183.25 815.29 178.86C814.881 178.577 814.384 178.453 813.89 178.51C813.618 178.595 813.376 178.755 813.19 178.97C813.122 178.866 813.049 178.766 812.97 178.67C810.73 176.25 807.21 176.09 805.97 172.39C805.626 171.216 805.382 170.015 805.24 168.8C804.456 165.263 803.187 161.85 801.47 158.66C801.219 158.002 800.79 157.427 800.23 157C799.703 156.745 799.099 156.701 798.541 156.878C797.983 157.055 797.514 157.438 797.23 157.95C796.655 158.996 796.431 160.198 796.59 161.38C796.67 162.68 796.86 164.19 795.96 165.12C795.598 165.46 795.159 165.707 794.68 165.84C791.79 166.78 788.61 165.94 785.91 164.53C783.21 163.12 780.78 161.16 778.11 159.67C776.699 158.897 775.243 158.209 773.75 157.61C772.21 156.97 770.07 156.55 769.21 158.02C768.52 159.2 769.21 160.71 770.01 161.83C771.35 163.764 772.911 165.536 774.66 167.11C779.86 171.76 786.41 174.35 792.51 177.59C797.828 180.419 802.853 183.769 807.51 187.59C807.33 188.172 807.219 188.772 807.18 189.38C807.182 190.561 807.431 191.728 807.91 192.808C808.388 193.887 809.086 194.855 809.96 195.65C811.688 197.186 813.632 198.46 815.73 199.43C826.317 204.93 836.983 210.287 847.73 215.5C848.413 215.897 849.174 216.142 849.96 216.22C852.14 216.27 853.53 213.91 855.28 212.55C857.03 211.19 859.28 210.81 861.39 210.1C865.14 208.81 868.39 206.36 871.6 203.94L881.83 196.2C886.98 192.31 892.26 188.2 896.58 183.4C897.125 184.546 897.902 185.568 898.86 186.4C898.02 188.27 899.77 190.21 900.19 192.23C900.339 193.558 900.376 194.896 900.3 196.23C900.479 198.177 900.813 200.106 901.3 202C901.792 205.092 902.019 208.22 901.98 211.35C901.98 214.84 902.09 218.35 902.14 221.83C902.21 226.35 902.28 230.92 901.33 235.33C900.04 241.33 896.88 247.03 897.13 253.19C897.311 254.34 897.197 255.516 896.8 256.61C894.19 261.61 892.13 267.12 889.32 272.04C888.49 273.235 887.818 274.533 887.32 275.9C886.97 277.328 887.111 278.832 887.72 280.17C886.606 282.166 885.979 284.396 885.89 286.68C885.7 292.33 887.97 297.68 889.06 303.25C890.06 308.36 890.06 313.6 890.21 318.81C890.98 343.19 895.75 367.29 896.74 391.66C897.207 402.896 896.873 414.151 895.74 425.34C895.01 432.56 893.93 439.76 893.53 447.02C892.38 467.62 896.68 488.02 900.95 508.22C902.242 506.703 904.053 505.722 906.03 505.47C905.51 507.47 904.82 510.07 904.1 511.99C903.057 512.135 902.056 512.496 901.16 513.05C898.67 514.64 897.82 517.9 896.37 520.54C893.2 526.29 886.97 529.24 881.86 533.19C879.41 535.08 876.94 537.97 877.71 541.04C886.56 543.61 896.2 545.89 904.71 542.35C908.17 540.92 911.41 538.55 915.12 538.43C917.94 538.34 920.82 539.57 923.52 538.73C924.19 538.55 924.776 538.144 925.18 537.58C925.498 536.963 925.649 536.274 925.62 535.58C925.85 530.879 925.83 526.169 925.56 521.47C925.33 517.47 925.74 514.47 922.49 513.91C921.682 511.9 921.082 509.812 920.7 507.68C920.7 507.29 920.61 506.88 920.56 506.47C921.455 506.477 922.348 506.403 923.23 506.25C923.774 506.158 924.312 506.031 924.84 505.87C924.67 505.18 924.52 504.48 924.38 503.79C924.1 502.4 923.88 501.01 923.7 499.62C923.52 498.23 923.39 496.82 923.29 495.42C923.29 494.71 923.21 494.01 923.18 493.3C923.12 491.89 923.1 490.48 923.11 489.06C923.12 487.64 923.11 486.23 923.21 484.81C923.31 483.39 923.35 481.97 923.45 480.55C923.69 477 924.04 473.45 924.39 469.93C925.41 459.59 926.437 449.257 927.47 438.93C927.77 435.83 928.08 432.72 928.12 429.61C928.158 427.75 928.071 425.889 927.86 424.04C927.33 419.56 925.92 415.04 925.86 410.62C925.842 409.882 925.868 409.144 925.94 408.41C926.01 407.669 926.133 406.933 926.31 406.21C926.4 405.81 926.52 405.41 926.64 405.02C926.89 404.23 927.17 403.46 927.42 402.67C927.55 402.28 927.67 401.88 927.78 401.48C928.189 399.791 928.433 398.066 928.51 396.33C928.51 395.75 928.58 395.17 928.61 394.59L929.84 370.21C930.04 366.3 930.37 362.08 931.9 358.59C932.558 357.05 933.52 355.658 934.73 354.5C934.42 353.67 934.73 352.27 935.59 352.05C936.597 364.496 936.473 377.007 935.22 389.43C934.78 393.33 934.13 397.2 933.95 401.12C933.57 409.76 935.48 418.31 936.15 426.93C936.82 435.55 936.15 444.43 936.15 453.18C936.08 468.23 937.74 483.23 939.39 498.18L940.39 498.84C940.39 500.16 940.54 501.6 940.52 502.84C940.487 503.271 940.531 503.704 940.65 504.12H940.23C939.262 504.202 938.329 504.518 937.51 505.041C936.692 505.563 936.012 506.277 935.53 507.12C934.54 508.832 933.821 510.687 933.4 512.62C932.91 514.046 932.706 515.555 932.8 517.06C933.18 519.91 935.6 522.06 936.24 524.86C937.41 529.93 932.44 535.4 934.7 540.06C936.14 543.06 939.77 543.89 942.94 544.41C947.78 545.2 953.29 545.83 957.1 542.62C958.135 541.722 958.962 540.609 959.524 539.359C960.085 538.108 960.367 536.75 960.35 535.38C960.35 531.72 958.18 528.46 957.23 524.94C955.89 520 957.89 513.36 955.78 508.8C955.608 508.319 955.343 507.878 955 507.5H955.72C955.55 505.83 955.38 504.15 955.2 502.5L956.88 501.64C958.61 500.77 960.61 500.11 962.41 500.79C961.74 492.2 961.55 482.71 963.53 474.35C965.07 467.75 967.83 461.49 969.11 454.83C970.11 449.34 970.18 443.7 970.2 438.11C970.2 427.73 970.2 417.28 968.46 407.11C967.76 403.03 966.76 398.85 967.52 394.77C968.02 392.08 969.24 389.6 969.96 386.96C971.64 380.79 970.41 374.16 971.41 367.83C973.79 352.71 975.05 336.93 976.86 321.74C977.762 313.131 978.069 304.471 977.78 295.82V295.72L981.37 288.72C983.94 283.72 986.55 278.64 988.11 273.27C988.649 274.025 989.083 274.849 989.4 275.72L1005.18 249.5C1006.2 247.949 1007.01 246.267 1007.59 244.5C1007.95 243.23 1008.07 241.9 1008.34 240.61C1009.05 237.26 1010.75 234.24 1012.11 231.12C1015.97 222.097 1016.97 212.112 1015 202.5V202.5ZM991.39 215.66C990.656 219.968 989.654 224.227 988.39 228.41C986.31 235.59 983.9 242.65 981.49 249.72L979.42 255.72C978.705 258.136 977.633 260.431 976.24 262.53C975.921 263.054 975.637 263.599 975.39 264.16C973.25 256.16 975.57 247.16 975.08 238.63C974.71 232.18 972.71 225.63 974.21 219.38C975.21 215.17 977.73 211.55 979.5 207.61C981.15 203.95 982.18 199.96 984.04 196.43C984.04 196.5 984.04 196.56 984.11 196.62C985.764 200.967 987.747 205.183 990.04 209.23C990.684 210.144 991.173 211.158 991.49 212.23C991.696 213.373 991.672 214.546 991.42 215.68L991.39 215.66Z" fill="url(#paint1_linear)"/>
<path d="M805.71 172.36C805.351 171.185 805.096 169.98 804.95 168.76C804.3 165.17 802.64 161.86 801.01 158.59C800.751 157.92 800.303 157.34 799.72 156.92C799.176 156.678 798.562 156.641 797.992 156.815C797.423 156.99 796.935 157.364 796.62 157.87C796.028 158.913 795.793 160.121 795.95 161.31C796.04 162.63 796.24 164.14 795.31 165.07C794.923 165.413 794.461 165.66 793.96 165.79C790.96 166.74 787.63 165.89 784.8 164.48C781.97 163.07 779.45 161.09 776.66 159.6C775.184 158.826 773.665 158.139 772.11 157.54C770.5 156.89 768.27 156.47 767.37 157.95C766.65 159.13 767.37 160.64 768.2 161.77C769.603 163.721 771.235 165.497 773.06 167.06C778.48 171.73 785.33 174.33 791.7 177.58C798.836 181.222 805.488 185.744 811.5 191.04C812.083 190.349 812.432 189.491 812.5 188.59C812.98 186.04 815.09 180.88 812.96 178.67C810.63 176.24 807 176.08 805.71 172.36Z" fill="#A0616A"/>
<path d="M906 515.75C911.339 519.917 918.103 521.814 924.83 521.03C926.23 520.86 927.83 520.36 928.29 519.03C928.458 518.223 928.367 517.383 928.03 516.63C926.972 514.114 926.159 511.502 925.6 508.83C925.25 506.4 925.34 503.51 923.36 502.05C920.5 499.94 913.02 500.05 911.16 503.32C910.72 504.02 907.92 517.36 906 515.75Z" fill="#3C354C"/>
<path d="M946.29 503.95C946.221 504.215 946.21 504.491 946.257 504.76C946.303 505.03 946.408 505.286 946.562 505.512C946.717 505.737 946.918 505.927 947.152 506.068C947.387 506.21 947.648 506.299 947.92 506.33C952.512 507.752 957.275 508.549 962.08 508.7L961.08 499.08C961.099 498.865 961.072 498.648 960.999 498.445C960.927 498.242 960.811 498.057 960.659 497.903C960.508 497.748 960.325 497.629 960.123 497.553C959.922 497.476 959.705 497.445 959.49 497.46C956.73 497 950.93 495.13 948.28 496.09C945.3 497.17 946.35 501.08 946.29 503.95Z" fill="#3C354C"/>
<path d="M918.36 120.24C919.136 122.259 919.519 124.407 919.49 126.57C919.74 134.32 918.41 142.69 913.01 148.25C919.07 146.44 925.88 147.53 931.6 144.83C934.25 143.58 936.48 141.59 938.96 140.04C943.38 137.28 948.53 135.94 953.13 133.48C957.73 131.02 961.99 126.87 962.25 121.67C960.25 119.57 957.04 119.27 954.42 118C951.6 116.62 949.51 114.1 947.52 111.67C945.172 108.991 943.114 106.072 941.38 102.96C939.638 99.8256 938.938 96.2185 939.38 92.66C934.27 93.58 930.56 98.04 925.73 99.95C923.85 100.69 921.82 101.03 919.99 101.88C917.38 103.08 912.09 107.16 911.99 110.36C912 113.85 917 117.16 918.36 120.24Z" fill="#A0616A"/>
<path opacity="0.1" d="M918.36 120.24C919.136 122.259 919.519 124.407 919.49 126.57C919.74 134.32 918.41 142.69 913.01 148.25C919.07 146.44 925.88 147.53 931.6 144.83C934.25 143.58 936.48 141.59 938.96 140.04C943.38 137.28 948.53 135.94 953.13 133.48C957.73 131.02 961.99 126.87 962.25 121.67C960.25 119.57 957.04 119.27 954.42 118C951.6 116.62 949.51 114.1 947.52 111.67C945.172 108.991 943.114 106.072 941.38 102.96C939.638 99.8256 938.938 96.2185 939.38 92.66C934.27 93.58 930.56 98.04 925.73 99.95C923.85 100.69 921.82 101.03 919.99 101.88C917.38 103.08 912.09 107.16 911.99 110.36C912 113.85 917 117.16 918.36 120.24Z" fill="black"/>
<path d="M984.15 322.2C982.26 337.44 980.95 353.28 978.46 368.45C977.46 374.8 978.7 381.45 976.95 387.65C976.2 390.3 974.95 392.79 974.4 395.48C973.61 399.58 974.65 403.77 975.4 407.87C977.24 418.12 977.24 428.61 977.21 439.03C977.21 444.64 977.21 450.3 976.08 455.81C974.74 462.5 971.86 468.81 970.25 475.39C968.18 483.79 968.38 493.31 969.08 501.93C967.2 501.25 965.08 501.93 963.3 502.78C961.52 503.63 959.72 504.78 957.73 504.91C955.04 505.16 952.51 503.74 950.19 502.36C948.41 501.31 946.86 500.36 945.09 499.28C943.36 484.28 941.63 469.22 941.7 454.11C941.7 445.33 942.39 436.53 941.7 427.77C941.01 419.01 939 410.53 939.41 401.87C939.6 397.93 940.27 394.05 940.72 390.14C942.2 377.48 942 365.34 941.11 352.63C940.24 352.85 939.89 354.25 940.21 355.08C938.94 356.231 937.919 357.63 937.21 359.19C935.61 362.69 935.27 366.93 935.06 370.85L933.77 395.32C933.736 397.648 933.447 399.965 932.91 402.23C932.46 403.84 931.78 405.36 931.37 406.98C929.9 412.84 932.26 418.88 933.01 424.87C933.62 429.87 933.1 434.87 932.59 439.81L929.38 470.93C928.21 482.25 927.07 493.81 929.38 504.93C929.53 505.62 929.68 506.32 929.86 507.02C929.308 507.18 928.747 507.307 928.18 507.4C926.19 507.68 924.17 507.68 922.18 507.4C920.32 507.21 918.44 506.89 916.6 506.67C912.18 506.17 907.77 505.98 904.84 509.32C900.38 489.1 895.9 468.57 897.09 447.9C897.51 440.62 898.63 433.39 899.4 426.14C900.6 414.919 900.961 403.624 900.48 392.35C899.48 367.89 894.48 343.7 893.65 319.23C893.48 314.01 893.5 308.74 892.46 303.62C891.32 298.07 888.95 292.62 889.14 286.99C889.33 281.36 893.44 275.11 899.14 275.42C914.87 276.29 929.24 267.61 944.93 266.13C952.05 265.45 959.29 264.44 966.34 265.71C973.39 266.98 980.41 270.97 983.18 277.57C984.68 281.16 984.8 285.14 984.91 289.02C985.23 300.1 985.52 311.21 984.15 322.2Z" fill="#575A89"/>
<path d="M905.13 514.17C902.53 515.77 901.64 519.04 900.13 521.69C896.82 527.46 890.32 530.42 884.98 534.38C882.42 536.29 879.84 539.18 880.65 542.27C889.89 544.84 899.95 547.13 908.86 543.58C912.47 542.14 915.86 539.76 919.73 539.64C922.68 539.55 925.73 540.79 928.5 539.94C929.199 539.777 929.816 539.369 930.24 538.79C930.565 538.175 930.723 537.485 930.7 536.79C930.942 532.069 930.918 527.338 930.63 522.62C930.35 518.01 930.97 514.75 925.71 514.95C919.67 515.21 910.37 510.94 905.13 514.17Z" fill="#CBCEDA"/>
<path d="M949.41 505.97C948.318 505.533 947.164 505.274 945.99 505.2C944.993 505.278 944.029 505.591 943.176 506.112C942.322 506.633 941.604 507.349 941.08 508.2C940.047 509.908 939.297 511.772 938.86 513.72C938.349 515.145 938.138 516.66 938.24 518.17C938.63 521.03 941.16 523.17 941.83 525.99C943.04 531.08 937.83 536.57 940.21 541.25C941.72 544.25 945.51 545.09 948.82 545.61C953.88 546.41 959.63 547.04 963.61 543.81C964.679 542.93 965.539 541.822 966.127 540.568C966.715 539.314 967.017 537.945 967.01 536.56C966.95 532.88 964.74 529.61 963.74 526.07C962.35 521.07 964.44 514.45 962.23 509.88C960.34 505.97 953.44 507.26 949.41 505.97Z" fill="#CBCEDA"/>
<path d="M920.05 116.72C934.404 116.72 946.04 105.084 946.04 90.73C946.04 76.3761 934.404 64.74 920.05 64.74C905.696 64.74 894.06 76.3761 894.06 90.73C894.06 105.084 905.696 116.72 920.05 116.72Z" fill="#A0616A"/>
<path d="M933.83 133.32C931.027 132.128 927.91 131.893 924.96 132.65L922.59 128.52C921.59 126.7 920.1 124.64 918.01 124.72C917.249 124.818 916.532 125.134 915.945 125.629C915.358 126.123 914.926 126.776 914.7 127.51C914.266 128.979 914.09 130.511 914.18 132.04C914.249 132.516 914.202 133.002 914.044 133.456C913.885 133.91 913.62 134.32 913.27 134.65C912.881 134.863 912.452 134.992 912.01 135.03C910.395 135.315 908.76 135.475 907.12 135.51C904.4 135.51 901.49 134.85 899.12 136.13C896.75 137.41 895.65 140.13 894.5 142.63C892.823 146.19 890.633 149.485 888 152.41C885.07 155.66 881.44 158.74 880.61 163.04C880.26 164.87 881.92 166.23 883.24 167.55C888.49 172.76 895.81 175.96 899.7 182.26C900.61 183.73 901.35 185.39 902.75 186.4C901.88 188.29 903.75 190.23 904.14 192.26C904.294 193.588 904.33 194.926 904.25 196.26C904.424 198.214 904.758 200.151 905.25 202.05C905.762 205.15 906 208.289 905.96 211.43L906.13 221.95C906.2 226.49 906.27 231.07 905.28 235.5C903.93 241.5 900.63 247.25 900.89 253.42C901.083 254.577 900.966 255.764 900.55 256.86C897.82 261.86 895.67 267.4 892.74 272.34C891.903 273.538 891.231 274.843 890.74 276.22C889.96 279.07 891.56 282.16 893.92 283.94C896.28 285.72 899.26 286.45 902.16 287C929.1 292.16 957.07 285.95 982.53 275.75C983.2 275.54 983.822 275.2 984.36 274.75C986.22 272.94 984.76 269.89 983.7 267.53C979.7 258.74 982.89 248.53 982.32 238.93C981.94 232.46 979.84 225.93 981.42 219.61C982.42 215.39 985.09 211.75 986.94 207.81C988.94 203.54 990.06 198.81 992.68 194.91C994.642 192.23 996.937 189.81 999.51 187.71L1015.76 173.23C1013.61 169.74 1013.52 165.36 1012.51 161.39C1011.63 157.97 1009.88 154.83 1008.83 151.47C1007.37 146.79 1007.17 141.47 1004.15 137.64C1002.96 136.11 1001.41 134.92 1000.08 133.51C998.56 131.89 997.36 130 995.81 128.41C991.32 123.81 984.55 122.35 978.16 121.73C971.77 121.11 965.16 121.08 959.24 118.52C956.34 117.27 953.24 115.38 950.24 116.32C947.86 117.06 946.33 119.39 945.36 121.7C944.39 124.01 943.71 126.5 942.12 128.43C940.16 130.73 936.69 132.25 933.83 133.32Z" fill="#3C354C"/>
<path d="M856.5 185.2C855.559 186.758 854.323 188.117 852.86 189.2C849.86 191.05 846.05 190.07 842.7 189.03C833.41 186.14 824.06 183.24 815.39 178.83C814.961 178.542 814.443 178.418 813.93 178.48C813.529 178.609 813.179 178.861 812.93 179.2C811.566 180.711 810.313 182.319 809.18 184.01C807.983 185.579 807.23 187.44 807 189.4C807.007 190.594 807.269 191.772 807.767 192.857C808.265 193.941 808.989 194.907 809.89 195.69C811.699 197.233 813.72 198.509 815.89 199.48C826.95 205 838.083 210.377 849.29 215.61C850.008 216.009 850.802 216.255 851.62 216.33C853.9 216.38 855.35 214.01 857.17 212.65C858.99 211.29 861.38 210.91 863.55 210.19C867.47 208.9 870.88 206.44 874.22 204.01L884.9 196.25C894.26 189.45 904.09 182.04 908.18 171.25L895.18 166.97C891.28 165.68 887.18 163.72 883.13 162.97C880.13 162.39 876.52 166.35 874.27 168.04C871.107 170.386 868.066 172.892 865.16 175.55C862.28 178.19 858.32 181.57 856.5 185.2Z" fill="#3C354C"/>
<path d="M979.55 270.57C975.88 272.03 971.72 269.83 967.83 270.48C966.006 270.887 964.267 271.608 962.69 272.61L951.33 278.96C950.63 279.34 949.87 280.27 950.48 280.77C950.656 280.887 950.859 280.955 951.07 280.97C954.86 281.46 958.4 279.15 962.17 278.51C963.827 278.284 965.501 278.221 967.17 278.32C967.445 278.304 967.721 278.345 967.98 278.44C968.256 278.598 968.482 278.832 968.631 279.113C968.779 279.395 968.845 279.713 968.82 280.03C968.82 280.67 968.63 281.29 968.61 281.93C968.724 283.404 969.301 284.804 970.26 285.93C973.875 291.119 977.887 296.021 982.26 300.59C983.369 299.188 984.327 297.673 985.12 296.07L988.86 289.07C992.74 281.85 996.71 274.36 997.33 266.19C994.53 265.3 989.33 262.35 986.44 263.9C983.55 265.45 982.88 269.5 979.55 270.57Z" fill="#A0616A"/>
<path d="M916.76 86.58C924.08 87.36 930.76 90.82 937.31 94.22C936.19 95.98 937.61 98.51 939.6 99.11C941.59 99.71 943.77 98.86 945.46 97.63C947.15 96.4 948.54 94.81 950.24 93.63C951.7 92.63 953.56 91.57 953.72 89.79C953.88 88.01 952.2 86.64 951.15 85.16C947.38 79.87 951.55 71.59 947.69 66.36C945.75 63.74 942.38 62.75 939.39 61.47C935.25 59.71 931.48 57.17 927.33 55.42C923.18 53.67 918.4 52.76 914.22 54.42C906.4 57.53 903.6 68.22 895.66 71.01C894.806 71.1783 894.03 71.6207 893.45 72.27C892.45 73.79 891.2 82.78 891.45 84.63C891.83 87.72 892.68 88.86 895.72 89.78C902.22 91.72 909.8 85.83 916.76 86.58Z" fill="#3F3D56"/>
<path d="M1011.53 169.5C1013.88 171.637 1015.71 174.285 1016.88 177.24C1017.83 180.065 1018.58 182.952 1019.14 185.88C1020.51 191.5 1022.77 196.88 1023.98 202.52C1026.04 212.157 1024.99 222.198 1020.98 231.2C1019.56 234.34 1017.78 237.36 1017.04 240.73C1016.76 242.02 1016.63 243.36 1016.26 244.63C1015.65 246.402 1014.8 248.084 1013.74 249.63L997.34 276.02C996.711 274.48 995.761 273.092 994.554 271.947C993.347 270.802 991.911 269.927 990.34 269.38C987.184 268.315 983.801 268.111 980.54 268.79C981.76 266.87 982.3 264.72 983.54 262.79C984.221 261.765 984.846 260.703 985.41 259.61C985.969 258.423 986.456 257.205 986.87 255.96L989.02 249.89C991.54 242.8 994.02 235.71 996.23 228.51C997.561 224.317 998.617 220.041 999.39 215.71C999.631 214.609 999.658 213.471 999.47 212.36C999.135 211.263 998.621 210.23 997.95 209.3C995.564 205.252 993.495 201.026 991.76 196.66C990.46 193.61 989.15 190.18 990.32 187.08C991.064 185.439 992.164 183.984 993.54 182.82C998.992 177.688 1005.03 173.217 1011.53 169.5V169.5Z" fill="#3C354C"/>
<path opacity="0.1" d="M928.19 507.38L929.39 504.91C927.09 493.81 928.23 482.25 929.39 470.91L932.6 439.79C933.11 434.79 933.6 429.79 933.02 424.85C932.27 418.85 929.91 412.85 931.38 406.96C931.79 405.34 932.47 403.82 932.92 402.21C933.457 399.945 933.746 397.628 933.78 395.3L935.07 370.83C935.28 366.91 935.62 362.67 937.22 359.17V358.5L933.1 323.04L922.22 507.38H928.19Z" fill="black"/>
<path d="M834.6 522.67C837.6 517.16 834.2 510.4 830.31 505.49C826.42 500.58 821.7 495.49 821.8 489.2C821.95 480.2 831.5 474.89 839.13 470.11C844.796 466.573 850.019 462.374 854.69 457.6C856.648 455.765 858.266 453.598 859.47 451.2C861.05 447.68 861.01 443.68 860.91 439.83C860.57 426.99 859.933 414.16 859 401.34" stroke="#3F3D56" stroke-width="4" stroke-miterlimit="10"/>
<path d="M873.51 400.64C873.404 398.289 872.707 396.003 871.483 393.993C870.26 391.983 868.549 390.314 866.51 389.14L863.37 395.36L863.47 387.83C861.968 387.39 860.404 387.201 858.84 387.27C856.078 387.407 853.418 388.359 851.197 390.006C848.975 391.653 847.291 393.921 846.356 396.524C845.422 399.126 845.28 401.948 845.947 404.631C846.615 407.315 848.062 409.741 850.106 411.603C852.151 413.465 854.701 414.68 857.436 415.095C860.17 415.509 862.966 415.104 865.47 413.932C867.975 412.759 870.076 410.871 871.509 408.505C872.941 406.14 873.641 403.403 873.52 400.64H873.51Z" fill="#57B894"/>
<path d="M848.48 495.63C847.008 498.483 844.6 500.744 841.659 502.033C838.718 503.322 835.424 503.561 832.328 502.71C829.232 501.859 826.523 499.97 824.654 497.359C822.785 494.749 821.871 491.575 822.064 488.37C822.257 485.165 823.545 482.124 825.714 479.756C827.882 477.388 830.798 475.837 833.974 475.364C837.15 474.89 840.391 475.523 843.156 477.155C845.921 478.788 848.041 481.321 849.16 484.33L840.39 491.5L850.04 489.27C850.03 491.484 849.495 493.663 848.48 495.63V495.63Z" fill="#57B894"/>
<path d="M841.55 468.38C838.063 468.626 834.61 467.559 831.87 465.388C829.13 463.217 827.301 460.1 826.743 456.649C826.185 453.198 826.939 449.663 828.855 446.739C830.772 443.816 833.713 441.715 837.1 440.85L837.02 446.63L840.2 440.34C842.041 440.25 843.882 440.524 845.617 441.148C847.353 441.771 848.947 442.731 850.31 443.972C851.673 445.214 852.778 446.712 853.56 448.381C854.343 450.051 854.788 451.858 854.87 453.7C854.952 455.319 854.749 456.941 854.27 458.49C853.427 461.248 851.752 463.678 849.475 465.448C847.199 467.219 844.431 468.242 841.55 468.38Z" fill="#57B894"/>
<path d="M875.62 445.71C873.466 445.789 871.322 445.37 869.357 444.484C867.391 443.599 865.656 442.272 864.288 440.606C862.919 438.94 861.954 436.981 861.467 434.881C860.981 432.781 860.985 430.597 861.481 428.499C861.977 426.401 862.951 424.446 864.327 422.786C865.702 421.126 867.443 419.806 869.412 418.93C871.382 418.053 873.527 417.643 875.681 417.731C877.835 417.82 879.939 418.405 881.83 419.44L879.35 426.24L884.45 421.34C887.183 423.843 888.812 427.328 888.98 431.03C889.047 432.33 888.929 433.633 888.63 434.9C887.937 437.874 886.291 440.54 883.942 442.492C881.593 444.444 878.671 445.574 875.62 445.71V445.71Z" fill="#57B894"/>
<path opacity="0.1" d="M871.62 404.38C868.38 404.73 865.23 405.74 861.98 405.94C858.73 406.14 855.16 405.37 853.1 402.84C852 401.48 851.44 399.76 850.51 398.27C849.622 396.886 848.406 395.742 846.97 394.94C846.123 396.71 845.658 398.638 845.604 400.6C845.551 402.561 845.91 404.512 846.659 406.326C847.408 408.139 848.53 409.775 849.952 411.127C851.374 412.479 853.064 413.518 854.913 414.174C856.762 414.831 858.729 415.092 860.685 414.94C862.641 414.787 864.544 414.226 866.269 413.291C867.994 412.356 869.504 411.069 870.699 409.513C871.895 407.957 872.751 406.168 873.21 404.26C872.683 404.28 872.153 404.32 871.62 404.38Z" fill="black"/>
<path opacity="0.1" d="M875.62 445.71C873.2 445.833 870.789 445.325 868.623 444.237C866.458 443.148 864.612 441.516 863.266 439.5C861.921 437.485 861.122 435.154 860.947 432.737C860.772 430.32 861.228 427.898 862.27 425.71C863.384 426.459 864.341 427.416 865.09 428.53C866.09 430.04 866.7 431.79 867.87 433.17C870.06 435.74 873.79 436.58 877.18 436.43C880.57 436.28 883.84 435.31 887.18 435C887.65 435 888.12 434.93 888.6 434.92C887.905 437.886 886.261 440.544 883.919 442.491C881.577 444.438 878.663 445.568 875.62 445.71V445.71Z" fill="black"/>
<path opacity="0.1" d="M841.55 468.38C839.152 468.501 836.763 468.004 834.613 466.936C832.463 465.867 830.623 464.264 829.271 462.28C827.92 460.295 827.101 457.996 826.894 455.604C826.687 453.212 827.099 450.807 828.09 448.62C829.254 449.38 830.271 450.346 831.09 451.47C832.18 453.01 832.86 454.79 834.14 456.21C836.51 458.84 840.49 459.77 844.07 459.69C847.65 459.61 850.9 458.76 854.35 458.49C853.502 461.26 851.815 463.699 849.523 465.471C847.23 467.242 844.445 468.259 841.55 468.38V468.38Z" fill="black"/>
<path opacity="0.1" d="M848.48 495.63C846.962 499.023 844.157 501.675 840.684 503.001C837.211 504.326 833.353 504.218 829.96 502.7C826.567 501.182 823.915 498.377 822.589 494.904C821.263 491.431 821.372 487.573 822.89 484.18C824.048 484.937 825.087 485.864 825.97 486.93C827.31 488.55 828.19 490.4 829.73 491.93C832.6 494.75 837.23 495.93 841.36 496.02C843.739 496.031 846.116 495.901 848.48 495.63V495.63Z" fill="black"/>
<path d="M813.43 516.32C813.43 516.32 824.51 515.98 827.85 513.6C831.19 511.22 844.85 508.39 845.71 512.2C846.57 516.01 862.36 531.2 849.86 531.26C837.36 531.32 820.8 529.32 817.46 527.26C814.12 525.2 813.43 516.32 813.43 516.32Z" fill="#656380"/>
<path opacity="0.2" d="M850.08 529.94C837.57 530.04 821.02 527.94 817.69 525.94C815.15 524.39 814.14 518.85 813.8 516.29H813.43C813.43 516.29 814.13 525.23 817.43 527.29C820.73 529.35 837.32 531.36 849.83 531.29C853.44 531.29 854.68 529.98 854.61 528.08C854.14 529.2 852.77 529.91 850.08 529.94Z" fill="black"/>
<path d="M58.4 533.67C55.4 528.16 58.8 521.4 62.69 516.49C66.58 511.58 71.3 506.49 71.2 500.2C71.05 491.2 61.5 485.89 53.87 481.11C48.2044 477.573 42.9809 473.374 38.31 468.6C36.3525 466.765 34.7343 464.598 33.53 462.2C31.95 458.68 31.99 454.68 32.09 450.83C32.43 437.99 33.0667 425.16 34 412.34" stroke="#3F3D56" stroke-width="4" stroke-miterlimit="10"/>
<path d="M19.49 411.64C19.5963 409.289 20.2934 407.003 21.5169 404.993C22.7404 402.983 24.4507 401.314 26.49 400.14L29.63 406.36L29.53 398.83C31.032 398.39 32.5963 398.201 34.16 398.27C36.9221 398.407 39.5817 399.359 41.8034 401.006C44.0251 402.653 45.7093 404.921 46.6436 407.524C47.5778 410.126 47.7202 412.948 47.0528 415.631C46.3853 418.315 44.9381 420.741 42.8934 422.603C40.8488 424.465 38.2985 425.68 35.5642 426.095C32.83 426.509 30.0342 426.104 27.5297 424.932C25.0251 423.759 22.924 421.871 21.4914 419.505C20.0588 417.14 19.3589 414.403 19.48 411.64H19.49Z" fill="#57B894"/>
<path d="M44.52 506.63C45.9921 509.483 48.4003 511.744 51.3409 513.033C54.2815 514.322 57.5758 514.561 60.6717 513.71C63.7677 512.859 66.477 510.97 68.3458 508.359C70.2146 505.749 71.1292 502.575 70.9363 499.37C70.7435 496.165 69.4549 493.124 67.2865 490.756C65.1181 488.388 62.2017 486.837 59.0261 486.364C55.8505 485.89 52.6086 486.523 49.8438 488.155C47.0791 489.788 44.9593 492.321 43.84 495.33L52.61 502.46L43 500.23C42.9912 502.454 43.5122 504.648 44.52 506.63V506.63Z" fill="#57B894"/>
<path d="M51.45 479.38C54.9372 479.626 58.3903 478.559 61.1304 476.388C63.8705 474.217 65.6992 471.1 66.2571 467.649C66.8149 464.198 66.0614 460.663 64.1448 457.739C62.2282 454.816 59.2872 452.715 55.9 451.85L55.98 457.63L52.8 451.34C50.9586 451.25 49.1175 451.524 47.3825 452.148C45.6475 452.771 44.0527 453.731 42.6896 454.972C41.3265 456.214 40.2221 457.712 39.4396 459.381C38.6571 461.051 38.2121 462.858 38.13 464.7C38.0479 466.319 38.251 467.941 38.73 469.49C39.5734 472.248 41.2479 474.678 43.5247 476.448C45.8014 478.219 48.5693 479.242 51.45 479.38Z" fill="#57B894"/>
<path d="M17.38 456.71C19.5343 456.789 21.6778 456.37 23.6434 455.484C25.6091 454.599 27.3437 453.272 28.7121 451.606C30.0805 449.94 31.0457 447.981 31.5326 445.881C32.0194 443.781 32.0146 441.597 31.5187 439.499C31.0228 437.401 30.049 435.446 28.6734 433.786C27.2978 432.126 25.5574 430.806 23.5879 429.93C21.6185 429.053 19.4732 428.643 17.3192 428.731C15.1652 428.82 13.0608 429.405 11.17 430.44L13.65 437.24L8.54999 432.34C5.80954 434.84 4.17309 438.325 3.99998 442.03C3.9334 443.33 4.05124 444.633 4.34998 445.9C5.04371 448.877 6.69296 451.546 9.04579 453.498C11.3986 455.45 14.3257 456.578 17.38 456.71V456.71Z" fill="#57B894"/>
<path opacity="0.1" d="M21.38 415.38C24.62 415.73 27.77 416.74 31.02 416.94C34.27 417.14 37.84 416.37 39.9 413.84C41 412.48 41.56 410.76 42.49 409.27C43.3782 407.886 44.5941 406.742 46.03 405.94C46.8768 407.71 47.342 409.638 47.3955 411.6C47.4491 413.561 47.0897 415.512 46.3407 417.326C45.5917 419.139 44.4698 420.775 43.0478 422.127C41.6259 423.479 39.9355 424.518 38.0865 425.174C36.2375 425.831 34.2711 426.092 32.3148 425.94C30.3585 425.787 28.4561 425.226 26.7309 424.291C25.0057 423.356 23.4963 422.069 22.3005 420.513C21.1048 418.957 20.2495 417.168 19.79 415.26C20.3166 415.28 20.8466 415.32 21.38 415.38Z" fill="black"/>
<path opacity="0.1" d="M17.38 456.71C19.8005 456.833 22.2114 456.325 24.3769 455.237C26.5423 454.148 28.3881 452.516 29.7337 450.5C31.0792 448.485 31.8784 446.154 32.0531 443.737C32.2277 441.32 31.7718 438.898 30.73 436.71C29.6164 437.459 28.6587 438.416 27.91 439.53C26.91 441.04 26.3 442.79 25.13 444.17C22.94 446.74 19.21 447.58 15.82 447.43C12.43 447.28 9.16002 446.31 5.82002 446C5.35002 446 4.88002 445.93 4.40002 445.92C5.09517 448.886 6.73862 451.544 9.08109 453.491C11.4235 455.438 14.3372 456.568 17.38 456.71V456.71Z" fill="black"/>
<path opacity="0.1" d="M51.45 479.38C53.848 479.501 56.2369 479.004 58.3872 477.936C60.5375 476.867 62.3768 475.264 63.7286 473.28C65.0803 471.295 65.899 468.996 66.1059 466.604C66.3127 464.212 65.901 461.807 64.91 459.62C63.7456 460.38 62.7291 461.346 61.91 462.47C60.82 464.01 60.14 465.79 58.91 467.21C56.54 469.84 52.56 470.77 48.98 470.69C45.4 470.61 42.15 469.76 38.7 469.49C39.5451 472.253 41.2241 474.686 43.5068 476.457C45.7895 478.227 48.5641 479.248 51.45 479.38Z" fill="black"/>
<path opacity="0.1" d="M44.52 506.63C46.0384 510.023 48.8426 512.675 52.3158 514.001C55.7889 515.326 59.6466 515.218 63.04 513.7C66.4335 512.182 69.0847 509.377 70.4106 505.904C71.7365 502.431 71.6284 498.573 70.11 495.18C68.9516 495.937 67.9134 496.864 67.03 497.93C65.69 499.55 64.81 501.4 63.27 502.93C60.4 505.75 55.77 506.93 51.64 507.02C49.261 507.031 46.8835 506.901 44.52 506.63V506.63Z" fill="black"/>
<path d="M79.57 527.32C79.57 527.32 68.49 526.98 65.15 524.6C61.81 522.22 48.15 519.39 47.29 523.2C46.43 527.01 30.64 542.2 43.14 542.26C55.64 542.32 72.2 540.32 75.54 538.26C78.88 536.2 79.57 527.32 79.57 527.32Z" fill="#656380"/>
<path opacity="0.2" d="M42.92 540.94C55.43 541.04 71.98 538.94 75.31 536.94C77.85 535.39 78.86 529.85 79.2 527.29H79.57C79.57 527.29 78.87 536.23 75.57 538.29C72.27 540.35 55.68 542.36 43.17 542.29C39.56 542.29 38.32 540.98 38.39 539.08C38.86 540.2 40.23 540.91 42.92 540.94Z" fill="black"/>
<defs>
<linearGradient id="paint0_linear" x1="124.99" y1="550.37" x2="124.99" y2="80.11" gradientUnits="userSpaceOnUse">
<stop stop-color="#808080" stop-opacity="0.25"/>
<stop offset="0.54" stop-color="#808080" stop-opacity="0.12"/>
<stop offset="1" stop-color="#808080" stop-opacity="0.1"/>
</linearGradient>
<linearGradient id="paint1_linear" x1="242515" y1="396049" x2="242515" y2="154966" gradientUnits="userSpaceOnUse">
<stop stop-color="#808080" stop-opacity="0.25"/>
<stop offset="0.54" stop-color="#808080" stop-opacity="0.12"/>
<stop offset="1" stop-color="#808080" stop-opacity="0.1"/>
</linearGradient>
</defs>
</svg>
