<svg width="1196" height="1162" viewBox="0 0 1196 1162" fill="none" xmlns="http://www.w3.org/2000/svg">
<g filter="url(#filter0_d)">
<rect x="394.056" y="446.746" width="494" height="494" transform="rotate(45 394.056 446.746)" fill="white"/>
<rect x="394.056" y="447.453" width="493" height="493" transform="rotate(45 394.056 447.453)" stroke="#D2D2D2"/>
</g>
<g filter="url(#filter1_d)">
<rect x="109.599" y="690" width="149.34" height="149.34" transform="rotate(45 109.599 690)" fill="white"/>
<rect x="109.599" y="690.707" width="148.34" height="148.34" transform="rotate(45 109.599 690.707)" stroke="#D2D2D2"/>
</g>
<g filter="url(#filter2_d)">
<rect x="667.201" y="779" width="107.764" height="107.764" transform="rotate(45 667.201 779)" fill="white"/>
<rect x="667.201" y="779.707" width="106.764" height="106.764" transform="rotate(45 667.201 779.707)" stroke="#D2D2D2"/>
</g>
<g filter="url(#filter3_d)">
<rect x="343.05" y="922" width="72.1958" height="72.1958" transform="rotate(45 343.05 922)" fill="white"/>
<rect x="343.05" y="922.707" width="71.1958" height="71.1958" transform="rotate(45 343.05 922.707)" stroke="#D2D2D2"/>
</g>
<path d="M451.175 846.243L417.708 812.752C424.306 804.839 428.274 794.727 428.274 783.683C428.274 758.487 407.596 738 382.161 738C356.726 738 336 758.511 336 783.707C336 808.903 356.678 829.39 382.113 829.39C392.918 829.39 402.863 825.684 410.752 819.493L444.339 853.08C446.299 855.04 449.215 855.04 451.175 853.08C453.136 851.12 453.136 848.203 451.175 846.243ZM345.801 783.707C345.801 763.913 362.105 747.825 382.113 747.825C402.122 747.825 418.425 763.913 418.425 783.707C418.425 803.5 402.122 819.589 382.113 819.589C362.105 819.589 345.801 803.476 345.801 783.707Z" fill="#5A5A5A"/>
<g filter="url(#filter4_d)">
<rect x="842.311" width="494" height="494" transform="rotate(45 842.311 0)" fill="white"/>
<rect x="842.311" y="0.707107" width="493" height="493" transform="rotate(45 842.311 0.707107)" stroke="#D2D2D2"/>
</g>
<path d="M785.5 407C785.5 406.724 785.276 406.5 785 406.5L780.5 406.5C780.224 406.5 780 406.724 780 407C780 407.276 780.224 407.5 780.5 407.5L784.5 407.5L784.5 411.5C784.5 411.776 784.724 412 785 412C785.276 412 785.5 411.776 785.5 411.5L785.5 407ZM493.354 699.354L785.354 407.354L784.646 406.646L492.646 698.646L493.354 699.354Z" fill="#B5B5B5"/>
<defs>
<filter id="filter0_d" x="40.7457" y="446.746" width="706.621" height="714.621" filterUnits="userSpaceOnUse" color-interpolation-filters="sRGB">
<feFlood flood-opacity="0" result="BackgroundImageFix"/>
<feColorMatrix in="SourceAlpha" type="matrix" values="0 0 0 0 0 0 0 0 0 0 0 0 0 0 0 0 0 0 127 0"/>
<feOffset dy="12"/>
<feGaussianBlur stdDeviation="2"/>
<feColorMatrix type="matrix" values="0 0 0 0 0.6875 0 0 0 0 0.6875 0 0 0 0 0.6875 0 0 0 0.25 0"/>
<feBlend mode="normal" in2="BackgroundImageFix" result="effect1_dropShadow"/>
<feBlend mode="normal" in="SourceGraphic" in2="effect1_dropShadow" result="shape"/>
</filter>
<filter id="filter1_d" x="0" y="690" width="219.198" height="227.198" filterUnits="userSpaceOnUse" color-interpolation-filters="sRGB">
<feFlood flood-opacity="0" result="BackgroundImageFix"/>
<feColorMatrix in="SourceAlpha" type="matrix" values="0 0 0 0 0 0 0 0 0 0 0 0 0 0 0 0 0 0 127 0"/>
<feOffset dy="12"/>
<feGaussianBlur stdDeviation="2"/>
<feColorMatrix type="matrix" values="0 0 0 0 0.6875 0 0 0 0 0.6875 0 0 0 0 0.6875 0 0 0 0.25 0"/>
<feBlend mode="normal" in2="BackgroundImageFix" result="effect1_dropShadow"/>
<feBlend mode="normal" in="SourceGraphic" in2="effect1_dropShadow" result="shape"/>
</filter>
<filter id="filter2_d" x="587" y="779" width="160.401" height="168.401" filterUnits="userSpaceOnUse" color-interpolation-filters="sRGB">
<feFlood flood-opacity="0" result="BackgroundImageFix"/>
<feColorMatrix in="SourceAlpha" type="matrix" values="0 0 0 0 0 0 0 0 0 0 0 0 0 0 0 0 0 0 127 0"/>
<feOffset dy="12"/>
<feGaussianBlur stdDeviation="2"/>
<feColorMatrix type="matrix" values="0 0 0 0 0.6875 0 0 0 0 0.6875 0 0 0 0 0.6875 0 0 0 0.25 0"/>
<feBlend mode="normal" in2="BackgroundImageFix" result="effect1_dropShadow"/>
<feBlend mode="normal" in="SourceGraphic" in2="effect1_dropShadow" result="shape"/>
</filter>
<filter id="filter3_d" x="288" y="922" width="110.1" height="118.1" filterUnits="userSpaceOnUse" color-interpolation-filters="sRGB">
<feFlood flood-opacity="0" result="BackgroundImageFix"/>
<feColorMatrix in="SourceAlpha" type="matrix" values="0 0 0 0 0 0 0 0 0 0 0 0 0 0 0 0 0 0 127 0"/>
<feOffset dy="12"/>
<feGaussianBlur stdDeviation="2"/>
<feColorMatrix type="matrix" values="0 0 0 0 0.6875 0 0 0 0 0.6875 0 0 0 0 0.6875 0 0 0 0.25 0"/>
<feBlend mode="normal" in2="BackgroundImageFix" result="effect1_dropShadow"/>
<feBlend mode="normal" in="SourceGraphic" in2="effect1_dropShadow" result="shape"/>
</filter>
<filter id="filter4_d" x="489" y="0" width="706.621" height="714.621" filterUnits="userSpaceOnUse" color-interpolation-filters="sRGB">
<feFlood flood-opacity="0" result="BackgroundImageFix"/>
<feColorMatrix in="SourceAlpha" type="matrix" values="0 0 0 0 0 0 0 0 0 0 0 0 0 0 0 0 0 0 127 0"/>
<feOffset dy="12"/>
<feGaussianBlur stdDeviation="2"/>
<feColorMatrix type="matrix" values="0 0 0 0 0.6875 0 0 0 0 0.6875 0 0 0 0 0.6875 0 0 0 0.25 0"/>
<feBlend mode="normal" in2="BackgroundImageFix" result="effect1_dropShadow"/>
<feBlend mode="normal" in="SourceGraphic" in2="effect1_dropShadow" result="shape"/>
</filter>
</defs>
</svg>
