<svg width="894" height="894" viewBox="0 0 894 894" fill="none" xmlns="http://www.w3.org/2000/svg">
<rect width="94" height="94" fill="#F8F8F8"/>
<rect y="200" width="94" height="94" fill="#F8F8F8"/>
<rect x="200" y="200" width="94" height="94" fill="#F8F8F8"/>
<rect x="400" y="200" width="94" height="94" fill="#F8F8F8"/>
<rect x="600" y="200" width="94" height="94" fill="#F8F8F8"/>
<rect x="800" y="200" width="94" height="94" fill="#F8F8F8"/>
<rect y="400" width="94" height="94" fill="#F8F8F8"/>
<rect x="200" y="400" width="94" height="94" fill="#F8F8F8"/>
<rect x="400" y="400" width="94" height="94" fill="#F8F8F8"/>
<rect x="600" y="400" width="94" height="94" fill="#F8F8F8"/>
<rect x="800" y="400" width="94" height="94" fill="#F8F8F8"/>
<rect y="600" width="94" height="94" fill="#F8F8F8"/>
<rect x="200" y="600" width="94" height="94" fill="#F8F8F8"/>
<rect x="400" y="600" width="94" height="94" fill="#F8F8F8"/>
<rect x="600" y="600" width="94" height="94" fill="#F8F8F8"/>
<rect x="800" y="600" width="94" height="94" fill="#F8F8F8"/>
<rect y="800" width="94" height="94" fill="#F8F8F8"/>
<rect x="200" y="800" width="94" height="94" fill="#F8F8F8"/>
<rect x="400" y="800" width="94" height="94" fill="#F8F8F8"/>
<rect x="600" y="800" width="94" height="94" fill="#F8F8F8"/>
<rect x="800" y="800" width="94" height="94" fill="#F8F8F8"/>
<rect x="200" width="94" height="94" fill="#F8F8F8"/>
<rect x="400" width="94" height="94" fill="#F8F8F8"/>
<rect x="600" width="94" height="94" fill="#F8F8F8"/>
<rect x="800" width="94" height="94" fill="#F8F8F8"/>
</svg>
