<svg width="1850" height="1850" viewBox="0 0 1850 1850" fill="none" xmlns="http://www.w3.org/2000/svg">
<rect width="50" height="50" fill="#F3F3F3"/>
<rect y="200" width="50" height="50" fill="#F3F3F3"/>
<rect x="200" y="200" width="50" height="50" fill="#F3F3F3"/>
<rect x="400" y="200" width="50" height="50" fill="#F3F3F3"/>
<rect x="600" y="200" width="50" height="50" fill="#F3F3F3"/>
<rect x="800" y="200" width="50" height="50" fill="#F3F3F3"/>
<rect y="400" width="50" height="50" fill="#F3F3F3"/>
<rect x="200" y="400" width="50" height="50" fill="#F3F3F3"/>
<rect x="400" y="400" width="50" height="50" fill="#F3F3F3"/>
<rect x="600" y="400" width="50" height="50" fill="#F3F3F3"/>
<rect x="800" y="400" width="50" height="50" fill="#F3F3F3"/>
<rect y="600" width="50" height="50" fill="#F3F3F3"/>
<rect x="200" y="600" width="50" height="50" fill="#F3F3F3"/>
<rect x="400" y="600" width="50" height="50" fill="#F3F3F3"/>
<rect x="600" y="600" width="50" height="50" fill="#F3F3F3"/>
<rect x="800" y="600" width="50" height="50" fill="#F3F3F3"/>
<rect y="800" width="50" height="50" fill="#F3F3F3"/>
<rect x="200" y="800" width="50" height="50" fill="#F3F3F3"/>
<rect x="400" y="800" width="50" height="50" fill="#F3F3F3"/>
<rect x="600" y="800" width="50" height="50" fill="#F3F3F3"/>
<rect x="800" y="800" width="50" height="50" fill="#F3F3F3"/>
<rect x="200" width="50" height="50" fill="#F3F3F3"/>
<rect x="400" width="50" height="50" fill="#F3F3F3"/>
<rect x="600" width="50" height="50" fill="#F3F3F3"/>
<rect x="800" width="50" height="50" fill="#F3F3F3"/>
<rect x="1000" width="50" height="50" fill="#F3F3F3"/>
<rect x="1000" y="200" width="50" height="50" fill="#F3F3F3"/>
<rect x="1200" y="200" width="50" height="50" fill="#F3F3F3"/>
<rect x="1400" y="200" width="50" height="50" fill="#F3F3F3"/>
<rect x="1600" y="200" width="50" height="50" fill="#F3F3F3"/>
<rect x="1800" y="200" width="50" height="50" fill="#F3F3F3"/>
<rect x="1000" y="400" width="50" height="50" fill="#F3F3F3"/>
<rect x="1200" y="400" width="50" height="50" fill="#F3F3F3"/>
<rect x="1400" y="400" width="50" height="50" fill="#F3F3F3"/>
<rect x="1600" y="400" width="50" height="50" fill="#F3F3F3"/>
<rect x="1800" y="400" width="50" height="50" fill="#F3F3F3"/>
<rect x="1000" y="600" width="50" height="50" fill="#F3F3F3"/>
<rect x="1200" y="600" width="50" height="50" fill="#F3F3F3"/>
<rect x="1400" y="600" width="50" height="50" fill="#F3F3F3"/>
<rect x="1600" y="600" width="50" height="50" fill="#F3F3F3"/>
<rect x="1800" y="600" width="50" height="50" fill="#F3F3F3"/>
<rect x="1000" y="800" width="50" height="50" fill="#F3F3F3"/>
<rect x="1200" y="800" width="50" height="50" fill="#F3F3F3"/>
<rect x="1400" y="800" width="50" height="50" fill="#F3F3F3"/>
<rect x="1600" y="800" width="50" height="50" fill="#F3F3F3"/>
<rect x="1800" y="800" width="50" height="50" fill="#F3F3F3"/>
<rect x="1200" width="50" height="50" fill="#F3F3F3"/>
<rect x="1400" width="50" height="50" fill="#F3F3F3"/>
<rect x="1600" width="50" height="50" fill="#F3F3F3"/>
<rect x="1800" width="50" height="50" fill="#F3F3F3"/>
<rect x="1000" y="1000" width="50" height="50" fill="#F3F3F3"/>
<rect x="1000" y="1200" width="50" height="50" fill="#F3F3F3"/>
<rect x="1200" y="1200" width="50" height="50" fill="#F3F3F3"/>
<rect x="1400" y="1200" width="50" height="50" fill="#F3F3F3"/>
<rect x="1600" y="1200" width="50" height="50" fill="#F3F3F3"/>
<rect x="1800" y="1200" width="50" height="50" fill="#F3F3F3"/>
<rect x="1000" y="1400" width="50" height="50" fill="#F3F3F3"/>
<rect x="1200" y="1400" width="50" height="50" fill="#F3F3F3"/>
<rect x="1400" y="1400" width="50" height="50" fill="#F3F3F3"/>
<rect x="1600" y="1400" width="50" height="50" fill="#F3F3F3"/>
<rect x="1800" y="1400" width="50" height="50" fill="#F3F3F3"/>
<rect x="1000" y="1600" width="50" height="50" fill="#F3F3F3"/>
<rect x="1200" y="1600" width="50" height="50" fill="#F3F3F3"/>
<rect x="1400" y="1600" width="50" height="50" fill="#F3F3F3"/>
<rect x="1600" y="1600" width="50" height="50" fill="#F3F3F3"/>
<rect x="1800" y="1600" width="50" height="50" fill="#F3F3F3"/>
<rect x="1000" y="1800" width="50" height="50" fill="#F3F3F3"/>
<rect x="1200" y="1800" width="50" height="50" fill="#F3F3F3"/>
<rect x="1400" y="1800" width="50" height="50" fill="#F3F3F3"/>
<rect x="1600" y="1800" width="50" height="50" fill="#F3F3F3"/>
<rect x="1800" y="1800" width="50" height="50" fill="#F3F3F3"/>
<rect x="1200" y="1000" width="50" height="50" fill="#F3F3F3"/>
<rect x="1400" y="1000" width="50" height="50" fill="#F3F3F3"/>
<rect x="1600" y="1000" width="50" height="50" fill="#F3F3F3"/>
<rect x="1800" y="1000" width="50" height="50" fill="#F3F3F3"/>
<rect y="1000" width="50" height="50" fill="#F3F3F3"/>
<rect y="1200" width="50" height="50" fill="#F3F3F3"/>
<rect x="200" y="1200" width="50" height="50" fill="#F3F3F3"/>
<rect x="400" y="1200" width="50" height="50" fill="#F3F3F3"/>
<rect x="600" y="1200" width="50" height="50" fill="#F3F3F3"/>
<rect x="800" y="1200" width="50" height="50" fill="#F3F3F3"/>
<rect y="1400" width="50" height="50" fill="#F3F3F3"/>
<rect x="200" y="1400" width="50" height="50" fill="#F3F3F3"/>
<rect x="400" y="1400" width="50" height="50" fill="#F3F3F3"/>
<rect x="600" y="1400" width="50" height="50" fill="#F3F3F3"/>
<rect x="800" y="1400" width="50" height="50" fill="#F3F3F3"/>
<rect y="1600" width="50" height="50" fill="#F3F3F3"/>
<rect x="200" y="1600" width="50" height="50" fill="#F3F3F3"/>
<rect x="400" y="1600" width="50" height="50" fill="#F3F3F3"/>
<rect x="600" y="1600" width="50" height="50" fill="#F3F3F3"/>
<rect x="800" y="1600" width="50" height="50" fill="#F3F3F3"/>
<rect y="1800" width="50" height="50" fill="#F3F3F3"/>
<rect x="200" y="1800" width="50" height="50" fill="#F3F3F3"/>
<rect x="400" y="1800" width="50" height="50" fill="#F3F3F3"/>
<rect x="600" y="1800" width="50" height="50" fill="#F3F3F3"/>
<rect x="800" y="1800" width="50" height="50" fill="#F3F3F3"/>
<rect x="200" y="1000" width="50" height="50" fill="#F3F3F3"/>
<rect x="400" y="1000" width="50" height="50" fill="#F3F3F3"/>
<rect x="600" y="1000" width="50" height="50" fill="#F3F3F3"/>
<rect x="800" y="1000" width="50" height="50" fill="#F3F3F3"/>
</svg>
