<?xml version="1.0" encoding="utf-8"?><svg version="1.1" id="Layer_1" xmlns="http://www.w3.org/2000/svg" xmlns:xlink="http://www.w3.org/1999/xlink" x="0px" y="0px" viewBox="0 0 103.15 122.88" style="enable-background:new 0 0 103.15 122.88" xml:space="preserve"><g><path d="M55.77,99.87c-2.16,2.05-4.95,3.07-7.74,3.07c-2.89,0-5.78-1.09-7.95-3.27L3.29,62.88c-2.18-2.18-3.27-5.07-3.27-7.95H0 c0-2.88,1.09-5.76,3.28-7.95l42.2-42.19c0.64-0.64,1.47-0.96,2.3-0.98l51.78-3.79c1.85-0.13,3.45,1.26,3.58,3.11 c0.01,0.19,0.01,0.37-0.01,0.55L99.6,54.87c-0.06,0.84-0.42,1.59-0.97,2.15L55.98,99.67L55.77,99.87L55.77,99.87z M93.4,72.22 c1.31-1.31,3.43-1.31,4.75,0c1.31,1.31,1.31,3.44,0,4.75L55.5,119.61l-0.22,0.2c-2.16,2.05-4.95,3.07-7.74,3.07 c-2.89,0-5.77-1.09-7.95-3.27L2.8,82.82c-1.31-1.31-1.31-3.44,0-4.75c1.31-1.31,3.44-1.31,4.75,0l36.79,36.79 c0.89,0.89,2.05,1.33,3.21,1.33c1.1,0,2.21-0.4,3.08-1.2L93.4,72.22L93.4,72.22z M66.86,57.27l-7.92-5.76 c0.52-1.21,0.81-2.11,0.86-2.72c0.06-0.61-0.06-1.4-0.36-2.37l-5.31,5.31c2.72,4.71,4.15,8.24,4.31,10.59 c0.16,3.13-0.88,5.83-3.16,8.11c-1.33,1.33-2.85,2.26-4.56,2.77c-1.71,0.52-3.39,0.69-5.07,0.52c-1.67-0.17-3.19-0.62-4.57-1.32 c-1.38-0.7-2.85-1.78-4.41-3.22l-2.13,2.13l-2.67-2.67l2.13-2.13c-1.64-1.96-2.81-3.7-3.51-5.24c-0.7-1.54-1.08-3.09-1.15-4.65 c-0.07-1.55,0.1-2.98,0.52-4.28c0.42-1.3,1.13-2.67,2.12-4.1l8.26,6.55c-0.98,1.42-1.55,2.59-1.71,3.5c-0.16,0.9-0.02,2,0.43,3.27 l6.49-6.49c-1.8-3.16-2.96-5.51-3.49-7.05c-0.53-1.53-0.62-3.24-0.27-5.11c0.35-1.87,1.32-3.6,2.91-5.19 c2.18-2.18,4.77-3.24,7.75-3.18c3,0.06,6.08,1.52,9.25,4.37l1.59-1.59L65.86,40l-1.58,1.59c2.58,2.91,4.03,5.66,4.35,8.24 C68.96,52.39,68.37,54.88,66.86,57.27L66.86,57.27z M56.87,43.65c-1.05-0.53-1.91-0.76-2.59-0.69c-0.68,0.07-1.29,0.36-1.8,0.88 c-0.53,0.53-0.85,1.16-0.93,1.87c-0.09,0.71,0.12,1.59,0.63,2.64L56.87,43.65L56.87,43.65z M41.46,64.4 c1.27,0.81,2.42,1.18,3.43,1.13c1.01-0.05,1.86-0.41,2.52-1.07c0.58-0.58,0.9-1.32,0.98-2.21c0.08-0.89-0.27-2.14-1.05-3.74 L41.46,64.4L41.46,64.4z M89.33,23.53c0.05,1.41-0.16,2.72-0.61,3.94c-0.46,1.23-1.16,2.36-2.11,3.39l-0.01,0.01 c-0.94,1.02-2,1.81-3.2,2.37c-1.21,0.57-2.51,0.9-3.91,0.98c-0.12,0.01-0.24,0.01-0.36,0c-1.29,0.01-2.51-0.21-3.65-0.64l-0.01,0 l0,0c-1.23-0.47-2.36-1.18-3.39-2.14c-0.06-0.06-0.12-0.12-0.17-0.18c-0.94-0.92-1.67-1.96-2.19-3.09 c-0.54-1.19-0.84-2.45-0.89-3.81l-0.01,0c-0.08-1.4,0.1-2.73,0.56-3.98c0.45-1.24,1.15-2.39,2.12-3.44l0.01-0.01l0,0 c0.96-1.04,2.04-1.84,3.25-2.4c1.2-0.56,2.5-0.86,3.91-0.9c1.43-0.05,2.76,0.16,4,0.62c1.25,0.47,2.4,1.19,3.44,2.16 c1.02,0.95,1.8,2.03,2.35,3.23C88.99,20.85,89.28,22.15,89.33,23.53L89.33,23.53L89.33,23.53z M83.48,25.53 c0.21-0.56,0.3-1.16,0.28-1.8c-0.02-0.65-0.15-1.24-0.39-1.77c-0.24-0.53-0.61-1.03-1.1-1.49c-0.48-0.45-1-0.78-1.55-0.98 c-0.57-0.21-1.19-0.31-1.86-0.28c-0.64,0.02-1.23,0.15-1.77,0.4c-0.53,0.25-1.03,0.62-1.48,1.11l0,0 c-0.45,0.49-0.77,1.01-0.97,1.57c-0.19,0.53-0.27,1.12-0.23,1.75l-0.01,0l0,0.07c0.02,0.66,0.15,1.25,0.4,1.78 c0.22,0.49,0.55,0.96,0.99,1.39c0.04,0.03,0.07,0.06,0.11,0.09c0.49,0.46,1.01,0.79,1.57,1l0,0c0.49,0.19,1.02,0.28,1.58,0.28 c0.04,0,0.08-0.01,0.12-0.01c0.71-0.04,1.33-0.19,1.86-0.44c0.54-0.25,1.03-0.62,1.48-1.11l0.02-0.02 C82.95,26.6,83.27,26.08,83.48,25.53L83.48,25.53L83.48,25.53z M48.03,96.25c1.1,0,2.21-0.4,3.08-1.2L93,53.16l3.19-46.18 L49.35,10.4L8.03,51.72c-0.88,0.88-1.32,2.04-1.32,3.21H6.7c0,1.16,0.45,2.32,1.33,3.21l36.79,36.79 C45.71,95.81,46.87,96.25,48.03,96.25L48.03,96.25z"/></g></svg>