<svg width="591" height="326" viewBox="0 0 591 326" fill="none" xmlns="http://www.w3.org/2000/svg">
<path d="M0 3.99999C0 1.79085 1.79086 0 4 0H587C589.209 0 591 1.79086 591 4V322C591 324.209 589.209 326 587 326H3.99999C1.79085 326 0 324.209 0 322V3.99999Z" fill="white"/>
<path d="M0 4C0 1.79086 1.79086 0 4 0H587C589.209 0 591 1.79086 591 4V16H0V4Z" fill="#DCDCDC"/>
<circle cx="11.5" cy="8.5" r="3.5" fill="#8D8D8D"/>
<circle cx="24.5" cy="8.5" r="3.5" fill="#8D8D8D"/>
<circle cx="37.5" cy="8.5" r="3.5" fill="#8D8D8D"/>
<rect x="133" y="36" width="329" height="29" rx="3" fill="#F1F1F1"/>
<rect x="133.25" y="65.25" width="328.5" height="230.5" rx="2.75" fill="white" stroke="#DCDCDC" stroke-width="0.5"/>
<path d="M149.669 49.0195C149.669 49.765 149.425 50.3363 148.937 50.7334C148.448 51.1305 147.753 51.3291 146.852 51.3291H146.109V54H144.942V46.8613H146.998C147.89 46.8613 148.557 47.0436 149 47.4082C149.446 47.7728 149.669 48.3099 149.669 49.0195ZM146.109 50.3477H146.729C147.328 50.3477 147.768 50.2435 148.048 50.0352C148.328 49.8268 148.468 49.5013 148.468 49.0586C148.468 48.6484 148.342 48.3424 148.092 48.1406C147.841 47.9388 147.451 47.8379 146.92 47.8379H146.109V50.3477ZM153.831 54.0977C152.991 54.0977 152.334 53.8535 151.858 53.3652C151.386 52.8737 151.15 52.1982 151.15 51.3389C151.15 50.4567 151.37 49.7633 151.81 49.2588C152.249 48.7542 152.853 48.502 153.621 48.502C154.334 48.502 154.897 48.7184 155.311 49.1514C155.724 49.5843 155.931 50.18 155.931 50.9385V51.5586H152.332C152.348 52.0827 152.49 52.4863 152.757 52.7695C153.024 53.0495 153.4 53.1895 153.885 53.1895C154.204 53.1895 154.5 53.1602 154.773 53.1016C155.05 53.0397 155.346 52.9388 155.662 52.7988V53.7314C155.382 53.8649 155.099 53.9593 154.812 54.0146C154.526 54.07 154.199 54.0977 153.831 54.0977ZM153.621 49.3711C153.257 49.3711 152.964 49.4867 152.742 49.7178C152.524 49.9489 152.394 50.2858 152.352 50.7285H154.803C154.796 50.2826 154.689 49.9456 154.48 49.7178C154.272 49.4867 153.986 49.3711 153.621 49.3711ZM160.474 48.502C160.705 48.502 160.895 48.5182 161.045 48.5508L160.933 49.6201C160.77 49.5811 160.601 49.5615 160.425 49.5615C159.966 49.5615 159.593 49.7113 159.307 50.0107C159.023 50.3102 158.882 50.6992 158.882 51.1777V54H157.734V48.5996H158.633L158.784 49.5518H158.843C159.022 49.2295 159.255 48.974 159.541 48.7852C159.831 48.5964 160.142 48.502 160.474 48.502ZM166.359 54L166.198 53.292H166.14C165.98 53.5426 165.752 53.7396 165.456 53.8828C165.163 54.026 164.828 54.0977 164.45 54.0977C163.796 54.0977 163.308 53.9349 162.985 53.6094C162.663 53.2839 162.502 52.7907 162.502 52.1299V48.5996H163.659V51.9297C163.659 52.3431 163.744 52.654 163.913 52.8623C164.082 53.0674 164.348 53.1699 164.709 53.1699C165.191 53.1699 165.544 53.0267 165.769 52.7402C165.996 52.4505 166.11 51.9671 166.11 51.29V48.5996H167.263V54H166.359ZM174.149 54H172.997V50.6797C172.997 50.263 172.912 49.9521 172.743 49.7471C172.577 49.542 172.312 49.4395 171.947 49.4395C171.462 49.4395 171.107 49.5827 170.883 49.8691C170.658 50.1556 170.546 50.6357 170.546 51.3096V54H169.398V48.5996H170.297L170.458 49.3076H170.517C170.679 49.0505 170.91 48.8519 171.21 48.7119C171.509 48.5719 171.841 48.502 172.206 48.502C173.502 48.502 174.149 49.1611 174.149 50.4795V54ZM185.271 50.3623C185.271 51.5407 184.944 52.4424 184.29 53.0674C183.636 53.6891 182.693 54 181.463 54H179.466V46.8613H181.673C182.809 46.8613 183.693 47.1673 184.324 47.7793C184.956 48.3913 185.271 49.2523 185.271 50.3623ZM184.041 50.4014C184.041 48.6924 183.242 47.8379 181.644 47.8379H180.633V53.0186H181.463C183.182 53.0186 184.041 52.1462 184.041 50.4014ZM188.335 54H187.188V48.5996H188.335V54ZM187.119 47.1689C187.119 46.9639 187.174 46.806 187.285 46.6953C187.399 46.5846 187.56 46.5293 187.769 46.5293C187.97 46.5293 188.127 46.5846 188.237 46.6953C188.351 46.806 188.408 46.9639 188.408 47.1689C188.408 47.3643 188.351 47.5189 188.237 47.6328C188.127 47.7435 187.97 47.7988 187.769 47.7988C187.56 47.7988 187.399 47.7435 187.285 47.6328C187.174 47.5189 187.119 47.3643 187.119 47.1689ZM193.859 54L193.63 53.248H193.591C193.33 53.5768 193.068 53.8014 192.805 53.9219C192.541 54.0391 192.202 54.0977 191.789 54.0977C191.258 54.0977 190.843 53.9544 190.544 53.668C190.248 53.3815 190.1 52.9762 190.1 52.4521C190.1 51.8955 190.306 51.4756 190.72 51.1924C191.133 50.9092 191.763 50.7546 192.609 50.7285L193.542 50.6992V50.4111C193.542 50.0661 193.461 49.8089 193.298 49.6396C193.138 49.4671 192.889 49.3809 192.551 49.3809C192.274 49.3809 192.009 49.4215 191.755 49.5029C191.501 49.5843 191.257 49.6803 191.022 49.791L190.651 48.9707C190.944 48.8177 191.265 48.7021 191.613 48.624C191.962 48.5426 192.29 48.502 192.6 48.502C193.286 48.502 193.804 48.6517 194.152 48.9512C194.504 49.2507 194.68 49.721 194.68 50.3623V54H193.859ZM192.15 53.2188C192.567 53.2188 192.901 53.1032 193.151 52.8721C193.405 52.6377 193.532 52.3105 193.532 51.8906V51.4219L192.839 51.4512C192.299 51.4707 191.905 51.5618 191.657 51.7246C191.413 51.8841 191.291 52.1299 191.291 52.4619C191.291 52.7028 191.363 52.89 191.506 53.0234C191.649 53.1536 191.864 53.2188 192.15 53.2188ZM201.332 54H200.18V50.6699C200.18 50.2565 200.102 49.9489 199.945 49.7471C199.789 49.542 199.545 49.4395 199.213 49.4395C198.77 49.4395 198.445 49.5843 198.236 49.874C198.031 50.1605 197.929 50.639 197.929 51.3096V54H196.781V48.5996H197.68L197.841 49.3076H197.899C198.049 49.0505 198.266 48.8519 198.549 48.7119C198.835 48.5719 199.149 48.502 199.491 48.502C200.321 48.502 200.871 48.7852 201.142 49.3516H201.22C201.379 49.0846 201.604 48.8763 201.894 48.7266C202.183 48.5768 202.515 48.502 202.89 48.502C203.534 48.502 204.003 48.6647 204.296 48.9902C204.592 49.3158 204.74 49.8122 204.74 50.4795V54H203.593V50.6699C203.593 50.2565 203.513 49.9489 203.354 49.7471C203.197 49.542 202.953 49.4395 202.621 49.4395C202.175 49.4395 201.848 49.5794 201.64 49.8594C201.435 50.1361 201.332 50.5625 201.332 51.1387V54ZM211.632 51.29C211.632 52.1722 211.406 52.8607 210.953 53.3555C210.501 53.8503 209.871 54.0977 209.063 54.0977C208.559 54.0977 208.113 53.9837 207.726 53.7559C207.338 53.528 207.04 53.2008 206.832 52.7744C206.624 52.348 206.52 51.8532 206.52 51.29C206.52 50.4144 206.744 49.7308 207.193 49.2393C207.643 48.7477 208.276 48.502 209.093 48.502C209.874 48.502 210.493 48.7542 210.948 49.2588C211.404 49.7601 211.632 50.4372 211.632 51.29ZM207.701 51.29C207.701 52.5368 208.162 53.1602 209.083 53.1602C209.994 53.1602 210.45 52.5368 210.45 51.29C210.45 50.0563 209.991 49.4395 209.073 49.4395C208.591 49.4395 208.242 49.599 208.023 49.918C207.809 50.237 207.701 50.6943 207.701 51.29ZM218.206 54H217.054V50.6797C217.054 50.263 216.969 49.9521 216.8 49.7471C216.634 49.542 216.368 49.4395 216.004 49.4395C215.519 49.4395 215.164 49.5827 214.939 49.8691C214.715 50.1556 214.603 50.6357 214.603 51.3096V54H213.455V48.5996H214.354L214.515 49.3076H214.573C214.736 49.0505 214.967 48.8519 215.267 48.7119C215.566 48.5719 215.898 48.502 216.263 48.502C217.558 48.502 218.206 49.1611 218.206 50.4795V54ZM222.124 54.0977C221.45 54.0977 220.924 53.8535 220.547 53.3652C220.169 52.877 219.98 52.1917 219.98 51.3096C219.98 50.4242 220.171 49.7357 220.552 49.2441C220.936 48.7493 221.466 48.502 222.144 48.502C222.853 48.502 223.394 48.764 223.765 49.2881H223.823C223.768 48.9007 223.74 48.5947 223.74 48.3701V46.4023H224.893V54H223.994L223.794 53.292H223.74C223.372 53.8291 222.834 54.0977 222.124 54.0977ZM222.432 53.1699C222.904 53.1699 223.247 53.0381 223.462 52.7744C223.677 52.5075 223.787 52.0762 223.794 51.4805V51.3193C223.794 50.639 223.683 50.1556 223.462 49.8691C223.241 49.5827 222.894 49.4395 222.422 49.4395C222.018 49.4395 221.707 49.6038 221.489 49.9326C221.271 50.2581 221.162 50.7236 221.162 51.3291C221.162 51.9281 221.268 52.3854 221.479 52.7012C221.691 53.0137 222.008 53.1699 222.432 53.1699ZM234.369 52.0615C234.369 52.6963 234.14 53.1943 233.681 53.5557C233.222 53.917 232.589 54.0977 231.781 54.0977C230.974 54.0977 230.313 53.9723 229.799 53.7217V52.6182C230.124 52.7712 230.469 52.8916 230.834 52.9795C231.202 53.0674 231.544 53.1113 231.859 53.1113C232.322 53.1113 232.662 53.0234 232.88 52.8477C233.101 52.6719 233.212 52.4359 233.212 52.1396C233.212 51.8727 233.111 51.6465 232.909 51.4609C232.707 51.2754 232.291 51.0557 231.659 50.8018C231.008 50.5381 230.549 50.237 230.282 49.8984C230.015 49.5599 229.882 49.153 229.882 48.6777C229.882 48.082 230.093 47.6133 230.517 47.2715C230.94 46.9297 231.508 46.7588 232.221 46.7588C232.904 46.7588 233.585 46.9085 234.262 47.208L233.891 48.1602C233.256 47.8932 232.689 47.7598 232.191 47.7598C231.814 47.7598 231.527 47.8428 231.332 48.0088C231.137 48.1715 231.039 48.388 231.039 48.6582C231.039 48.8438 231.078 49.0033 231.156 49.1367C231.234 49.2669 231.363 49.3906 231.542 49.5078C231.721 49.625 232.043 49.7796 232.509 49.9717C233.033 50.1898 233.417 50.3932 233.661 50.582C233.905 50.7708 234.084 50.984 234.198 51.2217C234.312 51.4593 234.369 51.7393 234.369 52.0615ZM238.141 53.1699C238.421 53.1699 238.701 53.126 238.98 53.0381V53.9023C238.854 53.9577 238.689 54.0033 238.487 54.0391C238.289 54.0781 238.082 54.0977 237.867 54.0977C236.78 54.0977 236.236 53.5247 236.236 52.3789V49.4688H235.499V48.9609L236.29 48.541L236.681 47.3984H237.389V48.5996H238.927V49.4688H237.389V52.3594C237.389 52.6361 237.457 52.8411 237.594 52.9746C237.734 53.1048 237.916 53.1699 238.141 53.1699ZM245.354 51.29C245.354 52.1722 245.128 52.8607 244.676 53.3555C244.223 53.8503 243.593 54.0977 242.786 54.0977C242.282 54.0977 241.836 53.9837 241.448 53.7559C241.061 53.528 240.763 53.2008 240.555 52.7744C240.346 52.348 240.242 51.8532 240.242 51.29C240.242 50.4144 240.467 49.7308 240.916 49.2393C241.365 48.7477 241.998 48.502 242.815 48.502C243.597 48.502 244.215 48.7542 244.671 49.2588C245.127 49.7601 245.354 50.4372 245.354 51.29ZM241.424 51.29C241.424 52.5368 241.884 53.1602 242.806 53.1602C243.717 53.1602 244.173 52.5368 244.173 51.29C244.173 50.0563 243.714 49.4395 242.796 49.4395C242.314 49.4395 241.964 49.599 241.746 49.918C241.531 50.237 241.424 50.6943 241.424 51.29ZM251.729 54H250.576V50.6699C250.576 50.2565 250.498 49.9489 250.342 49.7471C250.186 49.542 249.941 49.4395 249.609 49.4395C249.167 49.4395 248.841 49.5843 248.633 49.874C248.428 50.1605 248.325 50.639 248.325 51.3096V54H247.178V48.5996H248.076L248.237 49.3076H248.296C248.446 49.0505 248.662 48.8519 248.945 48.7119C249.232 48.5719 249.546 48.502 249.888 48.502C250.718 48.502 251.268 48.7852 251.538 49.3516H251.616C251.776 49.0846 252 48.8763 252.29 48.7266C252.58 48.5768 252.912 48.502 253.286 48.502C253.931 48.502 254.399 48.6647 254.692 48.9902C254.989 49.3158 255.137 49.8122 255.137 50.4795V54H253.989V50.6699C253.989 50.2565 253.91 49.9489 253.75 49.7471C253.594 49.542 253.35 49.4395 253.018 49.4395C252.572 49.4395 252.244 49.5794 252.036 49.8594C251.831 50.1361 251.729 50.5625 251.729 51.1387V54ZM259.978 54.0977C259.294 54.0977 258.763 53.8519 258.386 53.3604H258.317C258.363 53.8161 258.386 54.0928 258.386 54.1904V56.4023H257.238V48.5996H258.166C258.192 48.7005 258.246 48.9414 258.327 49.3223H258.386C258.744 48.7754 259.281 48.502 259.997 48.502C260.671 48.502 261.195 48.7461 261.569 49.2344C261.947 49.7227 262.136 50.4079 262.136 51.29C262.136 52.1722 261.944 52.8607 261.56 53.3555C261.179 53.8503 260.651 54.0977 259.978 54.0977ZM259.699 49.4395C259.243 49.4395 258.91 49.5729 258.698 49.8398C258.49 50.1068 258.386 50.5332 258.386 51.1191V51.29C258.386 51.9476 258.49 52.4245 258.698 52.7207C258.907 53.0137 259.247 53.1602 259.719 53.1602C260.116 53.1602 260.422 52.9974 260.637 52.6719C260.852 52.3464 260.959 51.8825 260.959 51.2803C260.959 50.6748 260.852 50.2174 260.637 49.9082C260.425 49.5957 260.113 49.4395 259.699 49.4395ZM270.226 47.7598C269.555 47.7598 269.028 47.9974 268.644 48.4727C268.259 48.9479 268.067 49.6038 268.067 50.4404C268.067 51.3161 268.251 51.9785 268.619 52.4277C268.99 52.877 269.526 53.1016 270.226 53.1016C270.528 53.1016 270.821 53.0723 271.104 53.0137C271.388 52.9518 271.682 52.8737 271.988 52.7793V53.7803C271.428 53.9919 270.794 54.0977 270.084 54.0977C269.039 54.0977 268.237 53.7819 267.677 53.1504C267.117 52.5156 266.837 51.609 266.837 50.4307C266.837 49.6885 266.972 49.0391 267.242 48.4824C267.516 47.9258 267.91 47.4993 268.424 47.2031C268.938 46.9069 269.542 46.7588 270.235 46.7588C270.965 46.7588 271.638 46.9118 272.257 47.2178L271.837 48.1895C271.596 48.0755 271.34 47.9762 271.07 47.8916C270.803 47.8037 270.522 47.7598 270.226 47.7598ZM278.694 51.29C278.694 52.1722 278.468 52.8607 278.016 53.3555C277.563 53.8503 276.933 54.0977 276.126 54.0977C275.621 54.0977 275.175 53.9837 274.788 53.7559C274.401 53.528 274.103 53.2008 273.895 52.7744C273.686 52.348 273.582 51.8532 273.582 51.29C273.582 50.4144 273.807 49.7308 274.256 49.2393C274.705 48.7477 275.338 48.502 276.155 48.502C276.937 48.502 277.555 48.7542 278.011 49.2588C278.466 49.7601 278.694 50.4372 278.694 51.29ZM274.764 51.29C274.764 52.5368 275.224 53.1602 276.146 53.1602C277.057 53.1602 277.513 52.5368 277.513 51.29C277.513 50.0563 277.054 49.4395 276.136 49.4395C275.654 49.4395 275.304 49.599 275.086 49.918C274.871 50.237 274.764 50.6943 274.764 51.29ZM285.068 54H283.916V50.6699C283.916 50.2565 283.838 49.9489 283.682 49.7471C283.525 49.542 283.281 49.4395 282.949 49.4395C282.507 49.4395 282.181 49.5843 281.973 49.874C281.768 50.1605 281.665 50.639 281.665 51.3096V54H280.518V48.5996H281.416L281.577 49.3076H281.636C281.785 49.0505 282.002 48.8519 282.285 48.7119C282.572 48.5719 282.886 48.502 283.228 48.502C284.058 48.502 284.608 48.7852 284.878 49.3516H284.956C285.116 49.0846 285.34 48.8763 285.63 48.7266C285.92 48.5768 286.252 48.502 286.626 48.502C287.271 48.502 287.739 48.6647 288.032 48.9902C288.328 49.3158 288.477 49.8122 288.477 50.4795V54H287.329V50.6699C287.329 50.2565 287.249 49.9489 287.09 49.7471C286.934 49.542 286.689 49.4395 286.357 49.4395C285.911 49.4395 285.584 49.5794 285.376 49.8594C285.171 50.1361 285.068 50.5625 285.068 51.1387V54ZM293.337 48.502C294.011 48.502 294.535 48.7461 294.909 49.2344C295.287 49.7227 295.476 50.4079 295.476 51.29C295.476 52.1755 295.285 52.8656 294.904 53.3604C294.523 53.8519 293.994 54.0977 293.317 54.0977C292.634 54.0977 292.103 53.8519 291.726 53.3604H291.647L291.438 54H290.578V46.4023H291.726V48.209C291.726 48.3424 291.719 48.541 291.706 48.8047C291.693 49.0684 291.683 49.236 291.677 49.3076H291.726C292.09 48.7705 292.627 48.502 293.337 48.502ZM293.039 49.4395C292.577 49.4395 292.243 49.5762 292.038 49.8496C291.836 50.1198 291.732 50.5739 291.726 51.2119V51.29C291.726 51.9476 291.83 52.4245 292.038 52.7207C292.246 53.0137 292.587 53.1602 293.059 53.1602C293.465 53.1602 293.773 52.999 293.981 52.6768C294.193 52.3545 294.299 51.889 294.299 51.2803C294.299 50.0531 293.879 49.4395 293.039 49.4395ZM302.099 51.29C302.099 52.1722 301.872 52.8607 301.42 53.3555C300.967 53.8503 300.338 54.0977 299.53 54.0977C299.026 54.0977 298.58 53.9837 298.192 53.7559C297.805 53.528 297.507 53.2008 297.299 52.7744C297.09 52.348 296.986 51.8532 296.986 51.29C296.986 50.4144 297.211 49.7308 297.66 49.2393C298.109 48.7477 298.743 48.502 299.56 48.502C300.341 48.502 300.959 48.7542 301.415 49.2588C301.871 49.7601 302.099 50.4372 302.099 51.29ZM298.168 51.29C298.168 52.5368 298.629 53.1602 299.55 53.1602C300.461 53.1602 300.917 52.5368 300.917 51.29C300.917 50.0563 300.458 49.4395 299.54 49.4395C299.058 49.4395 298.708 49.599 298.49 49.918C298.275 50.237 298.168 50.6943 298.168 51.29ZM311.258 52.0615C311.258 52.6963 311.028 53.1943 310.569 53.5557C310.11 53.917 309.477 54.0977 308.67 54.0977C307.863 54.0977 307.202 53.9723 306.688 53.7217V52.6182C307.013 52.7712 307.358 52.8916 307.723 52.9795C308.09 53.0674 308.432 53.1113 308.748 53.1113C309.21 53.1113 309.55 53.0234 309.769 52.8477C309.99 52.6719 310.101 52.4359 310.101 52.1396C310.101 51.8727 310 51.6465 309.798 51.4609C309.596 51.2754 309.179 51.0557 308.548 50.8018C307.897 50.5381 307.438 50.237 307.171 49.8984C306.904 49.5599 306.771 49.153 306.771 48.6777C306.771 48.082 306.982 47.6133 307.405 47.2715C307.828 46.9297 308.396 46.7588 309.109 46.7588C309.793 46.7588 310.473 46.9085 311.15 47.208L310.779 48.1602C310.145 47.8932 309.578 47.7598 309.08 47.7598C308.702 47.7598 308.416 47.8428 308.221 48.0088C308.025 48.1715 307.928 48.388 307.928 48.6582C307.928 48.8438 307.967 49.0033 308.045 49.1367C308.123 49.2669 308.252 49.3906 308.431 49.5078C308.61 49.625 308.932 49.7796 309.397 49.9717C309.922 50.1898 310.306 50.3932 310.55 50.582C310.794 50.7708 310.973 50.984 311.087 51.2217C311.201 51.4593 311.258 51.7393 311.258 52.0615ZM317.446 54L316.748 51.4805C316.663 51.2135 316.51 50.5934 316.289 49.6201H316.245C316.056 50.499 315.907 51.1224 315.796 51.4902L315.078 54H313.809L312.295 48.5996H313.467L314.155 51.2607C314.312 51.9183 314.422 52.4814 314.487 52.9502H314.517C314.549 52.7126 314.598 52.4408 314.663 52.1348C314.731 51.8255 314.79 51.5944 314.839 51.4414L315.659 48.5996H316.919L317.715 51.4414C317.764 51.6009 317.824 51.8451 317.896 52.1738C317.97 52.5026 318.014 52.7581 318.027 52.9404H318.066C318.115 52.54 318.229 51.9801 318.408 51.2607L319.106 48.5996H320.259L318.735 54H317.446ZM322.839 54H321.691V48.5996H322.839V54ZM321.623 47.1689C321.623 46.9639 321.678 46.806 321.789 46.6953C321.903 46.5846 322.064 46.5293 322.272 46.5293C322.474 46.5293 322.631 46.5846 322.741 46.6953C322.855 46.806 322.912 46.9639 322.912 47.1689C322.912 47.3643 322.855 47.5189 322.741 47.6328C322.631 47.7435 322.474 47.7988 322.272 47.7988C322.064 47.7988 321.903 47.7435 321.789 47.6328C321.678 47.5189 321.623 47.3643 321.623 47.1689ZM327.694 49.4688H326.376V54H325.224V49.4688H324.335V48.9316L325.224 48.5801V48.2285C325.224 47.5905 325.373 47.1185 325.673 46.8125C325.972 46.5033 326.43 46.3486 327.045 46.3486C327.449 46.3486 327.846 46.4154 328.236 46.5488L327.934 47.418C327.65 47.3268 327.38 47.2812 327.123 47.2812C326.863 47.2812 326.672 47.3626 326.552 47.5254C326.435 47.6849 326.376 47.9258 326.376 48.248V48.5996H327.694V49.4688ZM331.129 53.1699C331.409 53.1699 331.689 53.126 331.969 53.0381V53.9023C331.842 53.9577 331.677 54.0033 331.476 54.0391C331.277 54.0781 331.07 54.0977 330.855 54.0977C329.768 54.0977 329.225 53.5247 329.225 52.3789V49.4688H328.487V48.9609L329.278 48.541L329.669 47.3984H330.377V48.5996H331.915V49.4688H330.377V52.3594C330.377 52.6361 330.445 52.8411 330.582 52.9746C330.722 53.1048 330.904 53.1699 331.129 53.1699Z" fill="#5C5C5C"/>
<rect x="144" y="75" width="77" height="9" rx="4.5" fill="#EEEEEE"/>
<rect x="144" y="93" width="145" height="9" rx="4.5" fill="#EEEEEE"/>
<rect x="144" y="111" width="96" height="9" rx="4.5" fill="#EEEEEE"/>
<rect x="144" y="129" width="226" height="9" rx="4.5" fill="#EEEEEE"/>
<rect x="144" y="147" width="166" height="9" rx="4.5" fill="#EEEEEE"/>
<rect x="144" y="165" width="185" height="9" rx="4.5" fill="#EEEEEE"/>
<rect x="144" y="183" width="148" height="9" rx="4.5" fill="#EEEEEE"/>
<rect x="144" y="201" width="166" height="9" rx="4.5" fill="#EEEEEE"/>
<rect x="144" y="219" width="96" height="9" rx="4.5" fill="#EEEEEE"/>
<rect x="144" y="237" width="137" height="9" rx="4.5" fill="#EEEEEE"/>
<rect x="144" y="255" width="77" height="9" rx="4.5" fill="#EEEEEE"/>
<rect x="144" y="273" width="178" height="9" rx="4.5" fill="#EEEEEE"/>
</svg>
